<svg xmlns="http://www.w3.org/2000/svg" width="25" height="25" fill="none" viewBox="0 0 25 25"><path fill="#fff" d="M21.1601 4.69708C19.5423 3.96856 17.8193 3.43175 16.0043 3.125C15.7807 3.50843 15.5177 4.03246 15.3467 4.45424C13.4264 4.17306 11.5193 4.17306 9.63856 4.45424C9.45443 4.03246 9.19138 3.50843 8.96779 3.125C7.15275 3.43175 5.42979 3.96856 3.81204 4.69708C0.550243 9.47724 -0.330969 14.1424 0.103061 18.7308C2.27321 20.3029 4.36444 21.2487 6.42937 21.875C6.94231 21.1976 7.3895 20.4691 7.78407 19.715C7.03438 19.4466 6.32415 19.1015 5.65338 18.7053C5.83751 18.5775 6.00849 18.4369 6.17947 18.3091C10.2962 20.1751 14.7548 20.1751 18.8189 18.3091C18.9899 18.4497 19.1609 18.5775 19.345 18.7053C18.6743 19.1015 17.9509 19.4338 17.2143 19.715C17.6089 20.4691 18.0561 21.1976 18.569 21.875C20.634 21.2487 22.7383 20.3029 24.8953 18.7308C25.4083 13.4011 24.0141 8.78705 21.1864 4.69708H21.1601ZM8.33647 15.919C7.10014 15.919 6.08741 14.807 6.08741 13.4394C6.08741 12.0719 7.07384 10.9599 8.33647 10.9599C9.5991 10.9599 10.5987 12.0719 10.5855 13.4394C10.5855 14.7942 9.5991 15.919 8.33647 15.919ZM16.6356 15.919C15.3993 15.919 14.3866 14.807 14.3866 13.4394C14.3866 12.0719 15.373 10.9599 16.6356 10.9599C17.8983 10.9599 18.8978 12.0719 18.8847 13.4394C18.8847 14.7942 17.8983 15.919 16.6356 15.919Z"/></svg>