<svg xmlns="http://www.w3.org/2000/svg" width="25" height="26" fill="none" viewBox="0 0 25 26"><g clip-path="url(#clip0_200_460)"><path fill="#fff" d="M6.33009 8.32319C7.25942 8.32319 8.01278 7.57075 8.01278 6.64255C8.01278 5.71436 7.25942 4.96191 6.33009 4.96191C5.40076 4.96191 4.6474 5.71436 4.6474 6.64255C4.6474 7.57075 5.40076 8.32319 6.33009 8.32319Z"/><path fill="#fff" d="M4.6474 10.564C4.6474 9.94524 5.14965 9.4436 5.76919 9.4436H6.89099C7.51053 9.4436 8.01278 9.94523 8.01278 10.564V19.5274C8.01278 20.1463 7.51053 20.6479 6.89099 20.6479H5.76919C5.14965 20.6479 4.6474 20.1463 4.6474 19.5274V10.564Z"/><path fill="#fff" d="M11.3782 20.6479H12.5C13.1196 20.6479 13.6218 20.1463 13.6218 19.5274V14.4855C13.6218 12.8049 16.9872 11.6845 16.9872 13.9253V19.5279C16.9872 20.1467 17.4894 20.6479 18.109 20.6479H19.2308C19.8504 20.6479 20.3526 20.1463 20.3526 19.5274V12.8049C20.3526 10.564 18.6699 9.4436 16.4263 9.4436C14.1827 9.4436 13.6218 11.1242 13.6218 11.1242V10.564C13.6218 9.94523 13.1196 9.4436 12.5 9.4436H11.3782C10.7587 9.4436 10.2564 9.94524 10.2564 10.564V19.5274C10.2564 20.1463 10.7587 20.6479 11.3782 20.6479Z"/><path fill="#fff" fill-rule="evenodd" d="M21.4743 0.480225C23.3331 0.480225 24.8397 1.98513 24.8397 3.8415V21.7683C24.8397 23.6248 23.3331 25.1296 21.4743 25.1296H3.52563C1.66699 25.1296 0.160248 23.6248 0.160248 21.7683V3.8415C0.160248 1.98513 1.66699 0.480225 3.52563 0.480225H21.4743ZM21.4743 2.72108C22.0939 2.72108 22.5961 3.22272 22.5961 3.8415V21.7683C22.5961 22.3871 22.0939 22.8888 21.4743 22.8888H3.52563C2.90609 22.8888 2.40384 22.3871 2.40384 21.7683V3.8415C2.40384 3.22272 2.90609 2.72108 3.52563 2.72108H21.4743Z" clip-rule="evenodd"/></g><defs><clipPath id="clip0_200_460"><rect width="25" height="25.61" fill="#fff"/></clipPath></defs></svg>