<svg width="24" height="19" viewBox="0 0 24 19" fill="none" xmlns="http://www.w3.org/2000/svg">
<path d="M23.5312 6.08313C23.7188 5.9425 24 6.08313 24 6.3175V15.88C24 17.1456 22.9688 18.13 21.75 18.13H2.25C0.984375 18.13 0 17.1456 0 15.88V6.3175C0 6.08313 0.234375 5.9425 0.421875 6.08313C1.5 6.92688 2.85938 7.95813 7.64062 11.4269C8.625 12.13 10.3125 13.6769 12 13.6769C13.6406 13.6769 15.375 12.13 16.3125 11.4269C21.0938 7.95813 22.4531 6.92688 23.5312 6.08313ZM12 12.13C10.875 12.1769 9.32812 10.7706 8.53125 10.2081C2.29688 5.70813 1.82812 5.28625 0.421875 4.16125C0.140625 3.97375 0 3.64563 0 3.27063V2.38C0 1.16125 0.984375 0.130005 2.25 0.130005H21.75C22.9688 0.130005 24 1.16125 24 2.38V3.27063C24 3.64563 23.8125 3.97375 23.5312 4.16125C22.125 5.28625 21.6562 5.70813 15.4219 10.2081C14.625 10.7706 13.0781 12.1769 12 12.13Z" fill="white"/>
</svg>
