<svg width="250" height="88" viewBox="0 0 250 88" fill="none" xmlns="http://www.w3.org/2000/svg">
<path d="M14.4336 29.5664H26.1609C26.6571 29.5664 27.063 29.9724 27.063 30.4685V36.3322C27.063 40.0669 24.032 43.0979 20.2973 43.0979H14.4336C13.9374 43.0979 13.5315 42.692 13.5315 42.1958V30.4685C13.5315 29.9724 13.9374 29.5664 14.4336 29.5664Z" fill="white"/>
<path d="M35.633 29.5664H56.8324C57.3285 29.5664 57.7345 29.9724 57.7345 30.4685V36.3322C57.7345 40.0669 54.7034 43.0979 50.9687 43.0979H29.7693C29.2731 43.0979 28.8672 42.692 28.8672 42.1958V36.3322C28.8672 32.5975 31.8983 29.5664 35.633 29.5664Z" fill="white"/>
<path d="M16.2378 14.2306H41.4967C41.9928 14.2306 42.3988 14.6365 42.3988 15.1327V20.9964C42.3988 24.7311 39.3677 27.7621 35.633 27.7621H14.4336C13.9374 27.7621 13.5315 27.3562 13.5315 26.86V16.9369C13.5315 15.4439 14.7448 14.2306 16.2378 14.2306Z" fill="white"/>
<path d="M20.2973 44.9021H41.4967C41.9928 44.9021 42.3988 45.308 42.3988 45.8042V51.6679C42.3988 55.4026 39.3677 58.4336 35.633 58.4336H14.4336C13.9374 58.4336 13.5315 58.0277 13.5315 57.5315V51.6679C13.5315 47.9332 16.5626 44.9021 20.2973 44.9021Z" fill="white"/>
<path d="M50.9689 45.3531H56.8326C57.3287 45.3531 57.7347 45.7591 57.7347 46.2553V71.5141C57.7347 73.0071 56.5213 74.2204 55.0284 74.2204H45.1052C44.6091 74.2204 44.2031 73.8145 44.2031 73.3183V52.1189C44.2031 48.3842 47.2342 45.3531 50.9689 45.3531Z" fill="white"/>
<path d="M35.633 60.2379H41.4966C41.9928 60.2379 42.3987 60.6439 42.3987 61.14V72.8674C42.3987 73.3635 41.9928 73.7695 41.4966 73.7695H29.7693C29.2731 73.7695 28.8672 73.3635 28.8672 72.8674V67.0037C28.8672 63.269 31.8983 60.2379 35.633 60.2379Z" fill="white"/>
<path d="M79.8362 24.0139H91.568V27.3291H83.6295V33.0755H90.9817V36.3366H83.6295V44.0632H79.8362V24.0184V24.0139Z" fill="white"/>
<path d="M94.5088 34.0363C94.5088 27.9426 98.7577 23.5854 104.721 23.5854C110.683 23.5854 114.932 27.9426 114.932 34.0363C114.932 40.13 110.683 44.4872 104.721 44.4872C98.7577 44.4872 94.5088 40.13 94.5088 34.0363ZM111.053 34.0092C111.053 29.8686 108.541 26.9819 104.721 26.9819C100.9 26.9819 98.3878 29.8686 98.3878 34.0092C98.3878 38.1499 100.9 41.0637 104.721 41.0637C108.541 41.0637 111.053 38.204 111.053 34.0092Z" fill="white"/>
<path d="M125.081 36.3051H123.105V44.0541H119.312V24.0094H126.957C130.859 24.0094 133.692 26.7067 133.692 30.1843C133.692 33.0169 131.847 35.2631 129.095 36.0119L134.012 44.0586H129.709L125.085 36.3096L125.081 36.3051ZM129.867 30.2384C129.867 28.6101 128.608 27.3246 126.578 27.3246H123.105V33.1793H126.578C128.608 33.1793 129.867 31.8171 129.867 30.2384Z" fill="white"/>
<path d="M138.202 24.0139H149.907V27.3291H141.995V32.3268H149.37V35.5608H141.995V40.7209H150.042V44.0632H138.202V24.0184V24.0139Z" fill="white"/>
<path d="M159.528 31.0684L163.217 33.3146C165.116 34.4648 166.664 36.066 166.664 38.7408C166.664 42.2139 164.016 44.4872 160.195 44.4872C156.05 44.4872 153.966 41.9477 153.515 38.7137L156.858 37.4823C157.043 39.0836 158.089 41.0908 160.304 41.0908C161.932 41.0908 162.816 40.0759 162.816 38.8445C162.816 37.9379 162.442 37.0809 161.188 36.3322L157.845 34.352C156.028 33.283 154.21 32.0787 154.21 29.0071C154.21 26.1204 156.456 23.5809 160.168 23.5809C163.669 23.5809 165.649 25.3445 166.447 28.2313L163.186 29.4085C162.545 27.5637 161.449 26.8962 160.06 26.8962C158.802 26.8962 157.922 27.6449 157.922 28.7951C157.922 29.9453 158.486 30.4504 159.528 31.0684Z" fill="white"/>
<path d="M171.125 24.0139H174.918V44.0586H171.125V24.0139Z" fill="white"/>
<path d="M188.684 33.2064H199.108C199.189 33.4454 199.243 33.901 199.243 34.7851C199.216 40.4503 195.553 44.4872 189.514 44.4872C183.474 44.4872 179.302 40.13 179.302 34.0363C179.302 27.9426 183.578 23.5854 189.514 23.5854C193.095 23.5854 195.982 25.1641 197.691 27.7306L195.125 29.8686C193.921 28.0238 191.864 26.9277 189.514 26.9277C185.72 26.9277 183.154 29.8415 183.154 34.0092C183.154 38.177 185.693 41.0908 189.514 41.0908C192.829 41.0908 194.913 39.273 195.45 36.5216H188.688V33.2064H188.684Z" fill="white"/>
<path d="M203.433 24.0139H207.226V32.3539H215.03V24.0139H218.823V44.0586H215.03V35.6646H207.226V44.0586H203.433V24.0139Z" fill="white"/>
<path d="M227.646 27.3246H222.621V24.0094H236.464V27.3246H231.439V44.0541H227.646V27.3246Z" fill="white"/>
<path d="M83.1514 57.094L84.9421 58.1495C86.3133 58.9568 87.1071 59.877 87.1071 61.2301C87.1071 63.1291 85.7224 64.374 83.5619 64.374C81.2886 64.374 80.0753 62.8945 79.8452 60.9821L80.9819 60.6573C81.1533 61.9473 81.9787 63.2103 83.625 63.2103C85.0097 63.2103 85.8036 62.4164 85.8036 61.2662C85.8036 60.5039 85.3841 59.8184 84.2655 59.1824L82.6011 58.2036C81.2615 57.4278 80.2827 56.7106 80.2827 55.0913C80.2827 53.4721 81.4961 52.2136 83.5348 52.2136C85.4653 52.2136 86.6155 53.224 86.9899 54.938L85.8848 55.2627C85.5736 53.9863 84.7166 53.3503 83.4897 53.3503C82.2629 53.3503 81.5592 54.0494 81.5592 55.0327C81.5592 56.016 82.105 56.5121 83.1604 57.103L83.1514 57.094Z" fill="white"/>
<path d="M102.736 56.0837C102.736 58.1676 101.166 59.7102 98.9246 59.7102H95.9386V64.1305H94.6621V52.4618H98.9246C101.166 52.4618 102.736 53.9863 102.736 56.0882V56.0837ZM101.428 56.1018C101.428 54.6223 100.368 53.5804 98.7983 53.5804H95.9341V58.6051H98.7983C100.368 58.6051 101.428 57.5316 101.428 56.1018Z" fill="white"/>
<path d="M112.037 52.4573H113.656L117.715 64.126H116.344L115.271 60.919H110.368L109.294 64.126H107.973L112.032 52.4573H112.037ZM110.76 59.8004H114.901L112.88 53.7022H112.817L110.765 59.8004H110.76Z" fill="white"/>
<path d="M125.803 53.5759H122.519V52.4573H130.327V53.5759H127.075V64.126H125.798V53.5759H125.803Z" fill="white"/>
<path d="M137.332 52.4573H138.608V64.126H137.332V52.4573Z" fill="white"/>
<path d="M149.763 52.4573H151.382L155.441 64.126H154.07L152.997 60.919H148.094L147.02 64.126H145.699L149.758 52.4573H149.763ZM148.486 59.8004H152.627L150.606 53.7022H150.543L148.491 59.8004H148.486Z" fill="white"/>
<path d="M162.532 52.4573H163.808V62.9893H168.833V64.126H162.532V52.4573Z" fill="white"/>
<path d="M184.76 52.4573H186.036V62.9893H191.061V64.126H184.76V52.4573Z" fill="white"/>
<path d="M201.047 52.4573H202.666L206.726 64.126H205.355L204.281 60.919H199.378L198.305 64.126H196.983L201.043 52.4573H201.047ZM199.771 59.8004H203.911L201.891 53.7022H201.827L199.775 59.8004H199.771Z" fill="white"/>
<path d="M218.083 64.126H213.821V52.4573H217.867C219.843 52.4573 221.182 53.7338 221.182 55.4613C221.182 56.643 220.452 57.7481 219.238 58.1044C220.718 58.4788 221.48 59.6921 221.48 61.0453C221.48 62.7412 220.109 64.126 218.088 64.126H218.083ZM215.098 57.6534H217.822C219.022 57.6534 219.892 56.7332 219.892 55.6282C219.892 54.5231 219.067 53.5759 217.727 53.5759H215.098V57.6534ZM220.167 60.8739C220.167 59.7237 219.265 58.7585 218.034 58.7585H215.093V63.0074H217.939C219.292 63.0074 220.163 62.0602 220.163 60.8739H220.167Z" fill="white"/>
<path d="M231.588 57.094L233.378 58.1495C234.75 58.9568 235.543 59.877 235.543 61.2301C235.543 63.1291 234.159 64.374 231.998 64.374C229.725 64.374 228.512 62.8945 228.281 60.9821L229.418 60.6573C229.59 61.9473 230.415 63.2103 232.061 63.2103C233.446 63.2103 234.24 62.4164 234.24 61.2662C234.24 60.5039 233.82 59.8184 232.702 59.1824L231.037 58.2036C229.698 57.4278 228.719 56.7106 228.719 55.0913C228.719 53.4721 229.932 52.2136 231.971 52.2136C233.902 52.2136 235.052 53.224 235.426 54.938L234.321 55.2627C234.01 53.9863 233.153 53.3503 231.926 53.3503C230.699 53.3503 229.995 54.0494 229.995 55.0327C229.995 56.016 230.541 56.5121 231.597 57.103L231.588 57.094Z" fill="white"/>
</svg>
