<svg width="226" height="88" viewBox="0 0 226 88" fill="none" xmlns="http://www.w3.org/2000/svg">
<g clip-path="url(#clip0_330_638)">
<path d="M28.3394 75.57C27.2943 75.57 26.1745 75.5327 25.0921 75.4207C22.7405 75.1967 20.501 74.6742 18.4107 73.853C16.0965 72.9572 14.0062 71.6135 12.1772 69.8965C10.1243 67.9555 8.63128 65.5293 7.73545 62.6179L5.68252 55.8245L7.99673 55.3393C6.87695 54.1449 5.90648 52.8385 5.01065 51.3827C3.59226 48.9939 2.47248 46.381 1.72596 43.6562C0.942114 40.7448 0.718158 37.8334 1.01677 34.9593C1.3527 31.8239 2.3605 28.9498 4.04017 26.337C5.71985 23.6868 8.07139 21.4099 11.0575 19.6556C14.0062 17.9013 17.4775 16.7442 21.4341 16.2589C24.0469 15.923 26.5851 15.923 28.9366 16.2963L35.3941 15.9603C39.388 15.7737 43.4565 15.6991 47.4504 15.7364L53.5346 15.811V15.8857C54.1318 15.7737 54.7663 15.6617 55.4009 15.5498C58.275 15.1392 61.1864 15.0272 64.0605 15.2138C66.5987 15.3631 69.1742 15.6991 71.7123 16.2589C74.5491 16.8562 77.1246 17.7893 79.4388 19.0584C81.3425 18.8344 83.0221 18.6105 84.6645 18.4612L90.338 17.864C92.279 17.1548 94.4066 16.7442 96.6835 16.5949C97.1687 16.5949 97.6166 16.5576 98.1019 16.5576C100.864 16.5576 103.514 17.0055 105.94 17.9013C106.911 18.2745 107.844 18.7225 108.665 19.245C108.964 19.0584 109.3 18.8718 109.636 18.6851C112.622 17.0428 116.093 16.2589 119.975 16.4082C121.543 16.4829 123.036 16.6322 124.491 16.9308L124.566 15.5871H124.603C124.678 14.6539 124.753 13.5715 124.865 12.4144C125.014 10.1001 125.201 7.74861 125.387 5.88231L126.022 0.0967709L132.591 0.0594482C138.974 0.0594482 145.394 0.619336 151.665 1.70179L158.869 2.93355L156.816 9.95085C156.48 11.1826 156.069 13.0116 155.696 14.7659C155.621 15.0272 155.584 15.2885 155.547 15.5124C156.629 15.4004 157.712 15.3258 158.831 15.3258H159.167C161.743 15.3258 164.169 15.6244 166.371 16.2216L172.866 16.6695C176.897 16.9308 180.966 17.3414 184.96 17.864L191.454 18.7225L191.268 20.0662C192.499 19.8796 193.768 19.7303 195.075 19.6556C199.405 19.3943 203.436 19.8422 207.131 20.962C210.864 22.0818 214.148 23.8735 216.836 26.1877C219.598 28.5765 221.688 31.5253 223.069 34.922C224.376 38.1693 224.936 41.7526 224.712 45.6345C224.525 49.2925 223.667 52.7265 222.211 55.7872C220.793 58.8106 218.852 61.4234 216.463 63.5883C214.111 65.7159 211.386 67.3583 208.288 68.5527C205.302 69.6725 202.167 70.3444 198.584 70.531C195.075 70.7176 191.753 70.419 188.767 69.6352C186.341 69.0006 184.101 68.0675 182.011 66.7984C181.451 67.5076 180.854 68.1794 180.182 68.814C178.129 70.7549 175.553 72.2853 172.269 73.4797C169.208 74.5995 165.587 75.0848 160.735 75.0848C158.682 75.0848 156.629 74.8608 154.464 74.4502C152.15 73.965 149.948 73.2185 147.969 72.248C145.73 71.0909 143.752 69.5978 142.147 67.7315C141.475 66.9477 140.877 66.1265 140.392 65.268L139.272 65.1187C135.726 64.6335 123.596 63.2524 121.02 63.1031L115.496 62.8045H109.822C106.911 62.8045 103.999 62.8792 101.088 62.9911L95.5263 63.2524L89.9648 63.8123C87.2026 64.1109 77.1619 64.4842 71.4137 64.4842C68.8009 64.4842 67.7185 64.4095 67.1212 64.3349L62.4928 63.8123V63.775C60.0666 64.2602 57.7151 64.4842 55.2889 64.4469C54.2064 64.4469 53.1613 64.3722 52.1535 64.2229C51.5936 65.1934 50.9217 66.1265 50.1752 67.0223C48.3462 69.1873 45.8827 70.9789 42.71 72.5466C39.7613 73.965 36.178 74.8608 31.3629 75.346C30.4298 75.5327 29.3845 75.57 28.3394 75.57Z" fill="#2E2B5B"/>
<path d="M62.0448 52.5399C61.7835 52.5399 61.5222 52.5399 61.2236 52.5399C60.4398 52.5026 59.6559 52.4279 58.9094 52.2786C58.1629 52.1293 57.491 51.868 56.9311 51.5321C56.3712 51.1962 55.9233 50.7109 55.5874 50.151C55.2515 49.5538 55.1022 48.8446 55.1022 47.9861C55.1022 47.0903 55.2888 46.3438 55.6247 45.7839C55.9607 45.1867 56.4459 44.7388 57.0431 44.3282C57.6403 43.9549 58.3122 43.6563 59.096 43.4697C59.8799 43.283 60.6637 43.0964 61.4849 43.0218C62.3434 42.9098 63.2019 42.8725 64.0604 42.8351C64.9189 42.7978 65.7401 42.7232 66.5239 42.6485C67.3078 42.5739 68.0543 42.4619 68.7635 42.3126C69.4727 42.1633 70.0699 41.9393 70.5551 41.6407C70.4058 42.7978 70.2938 43.9922 70.1445 45.1867C70.0699 45.7092 69.9579 46.4184 69.734 47.3143C69.51 48.2101 69.0994 49.0313 68.5022 49.8524C67.905 50.6736 67.0092 51.3455 65.8894 51.9054C64.8816 52.316 63.6125 52.5399 62.0448 52.5399ZM198.994 57.4669C197.576 57.4669 196.381 57.243 195.336 56.7951C194.104 56.2352 193.059 55.4887 192.238 54.4435C191.417 53.4357 190.745 52.2786 190.26 50.9349C189.774 49.5911 189.439 48.2474 189.252 46.7917C189.065 45.3733 189.028 43.9176 189.177 42.4992C189.327 41.0808 189.7 39.8117 190.372 38.6546C191.044 37.4975 191.977 36.527 193.246 35.7432C194.515 34.9594 196.157 34.4741 198.173 34.3621C198.471 34.3621 198.77 34.3248 199.069 34.3248C200.711 34.3248 202.129 34.5861 203.324 35.146C204.742 35.7805 205.862 36.639 206.683 37.6841C207.504 38.7293 208.102 39.961 208.437 41.3794C208.773 42.7605 208.96 44.1789 208.997 45.6346C209.035 47.0903 208.885 48.5087 208.587 49.8524C208.288 51.2335 207.803 52.4653 207.094 53.585C206.385 54.7048 205.414 55.5633 204.257 56.2352C203.063 56.9071 201.607 57.3176 199.852 57.3923C199.517 57.4296 199.255 57.4669 198.994 57.4669ZM29.9072 49.3299C28.8247 49.3299 27.8169 49.1432 26.9584 48.8446C25.8013 48.3967 24.7935 47.7249 23.935 46.9037C23.1138 46.0825 22.4046 45.0747 21.9194 43.9549C21.4342 42.8351 21.0609 41.678 20.7996 40.4836C20.5383 39.2518 20.4637 38.0574 20.5757 36.863C20.6876 35.7059 21.0609 34.6234 21.6581 33.6529C22.2553 32.6825 23.1138 31.8613 24.159 31.1894C25.2414 30.5175 26.5851 30.107 28.2648 29.9203C28.8247 29.8457 29.3846 29.8457 29.9072 29.8457C31.1388 29.8457 32.2213 29.995 33.1918 30.3309C34.5355 30.7788 35.618 31.488 36.5138 32.3839C37.3723 33.2797 38.0442 34.3248 38.4921 35.5566C38.94 36.7883 39.2386 38.0574 39.3506 39.4385C39.4626 40.6329 39.3506 41.79 39.0893 42.9098C38.7907 44.0296 38.3054 45.0374 37.6336 45.9332C36.9617 46.829 36.0659 47.5755 34.9834 48.1728C33.901 48.77 32.6319 49.1432 31.1388 49.2925C30.7283 49.3299 30.2803 49.3299 29.9072 49.3299ZM163.758 48.9566C163.721 48.9566 163.684 48.9566 163.646 48.9566C162.004 48.9566 160.66 48.658 159.54 48.0981C158.421 47.5382 157.525 46.7917 156.778 45.8585C156.069 44.9254 155.547 43.8803 155.211 42.7232C154.875 41.5661 154.688 40.3716 154.613 39.1772C154.539 37.9454 154.688 36.751 154.987 35.5939C155.285 34.4368 155.808 33.3917 156.592 32.4958C157.375 31.6 158.346 30.8535 159.54 30.3309C160.697 29.8084 162.116 29.5471 163.721 29.5471C163.758 29.5471 163.796 29.5471 163.833 29.5471C165.811 29.5471 167.416 29.883 168.685 30.4802C169.954 31.0774 170.925 31.8986 171.634 32.8691C172.343 33.8396 172.828 34.9593 173.052 36.1911C173.314 37.4229 173.351 38.7293 173.276 40.1103C173.202 41.3048 172.903 42.4619 172.455 43.507C172.007 44.5895 171.373 45.5226 170.552 46.3438C169.768 47.165 168.76 47.7995 167.603 48.2847C166.483 48.7326 165.177 48.9566 163.758 48.9566ZM56.5579 33.8022C56.8192 31.9359 57.6403 30.5922 58.9841 29.8083C60.1412 29.1365 61.6715 28.8006 63.5752 28.8006C63.8738 28.8006 64.1724 28.8006 64.471 28.8379C65.5161 28.9125 66.4866 29.0245 67.3824 29.2111C68.2782 29.3978 69.0248 29.659 69.6966 30.0696C70.3312 30.4802 70.8164 30.9655 71.1523 31.6373C71.4883 32.2719 71.6003 33.093 71.451 34.1382C71.3763 35.146 70.9657 35.8178 70.1445 36.2658C69.3607 36.7137 68.3156 37.0123 67.0465 37.1989C65.7774 37.3855 64.3217 37.4602 62.7167 37.5348C61.1116 37.6095 59.432 37.7215 57.7896 37.9081C56.11 38.0947 54.4676 38.3933 52.8253 38.8039C51.7801 39.0652 50.847 39.4011 49.9885 39.8491C49.9512 37.8708 49.8765 35.9298 49.8019 33.9515C51.7801 33.8769 53.7584 33.8396 55.7367 33.8396C56.0353 33.8022 56.2966 33.8022 56.5579 33.8022ZM63.3885 22.4178C61.6715 22.4178 59.9545 22.5298 58.2375 22.7537C55.8113 23.0897 53.6091 23.7615 51.6682 24.6947C50.847 25.1053 50.1005 25.5905 49.3913 26.0757C49.3539 25.0306 49.2793 24.0228 49.242 22.9777C48.4581 22.9777 47.6369 22.9777 46.8531 22.9777C43.755 22.9777 40.657 23.0523 37.5962 23.2016C37.7829 24.6947 37.9322 26.1504 38.1188 27.6434C38.0815 27.6434 38.0068 27.6434 37.9695 27.6434C36.2898 25.7771 34.2742 24.5081 31.96 23.8735C30.467 23.4629 28.8247 23.239 27.0704 23.239C26.1372 23.239 25.1294 23.3136 24.1216 23.4256C21.0609 23.7989 18.4481 24.6574 16.3205 25.9264C14.1929 27.1955 12.5879 28.7632 11.4681 30.5549C10.3483 32.3465 9.67645 34.2875 9.4525 36.4151C9.22854 38.5053 9.41517 40.5956 9.97506 42.6858C10.5723 44.8881 11.4308 46.9037 12.5506 48.77C13.6703 50.6363 15.0141 52.1666 16.6564 53.3984C18.2614 54.6302 20.1277 55.526 22.2553 56.0486C23.5991 56.3845 25.0175 56.5711 26.5851 56.5711C27.5183 56.5711 28.4888 56.4965 29.4966 56.3845C31.6987 56.1232 33.7517 55.526 35.6926 54.5182C37.6336 53.5477 39.1266 52.1666 40.0971 50.3377C40.1344 50.3377 40.2091 50.3377 40.2464 50.3377C40.3584 51.7934 40.4704 53.2491 40.545 54.7421C40.7316 57.0937 40.2464 59.072 39.0893 60.7143C37.9322 62.3193 36.0286 63.2152 33.3411 63.4764C32.9305 63.5138 32.5199 63.5138 32.1093 63.5138C30.8776 63.5138 29.7579 63.3271 28.7127 62.9539C27.3317 62.4686 26.2865 61.4235 25.54 59.7812C22.33 60.2291 19.1199 60.8263 15.9472 61.4982C16.5071 63.3271 17.4029 64.7828 18.5974 65.9026C19.8291 67.0597 21.1729 67.9182 22.7406 68.5154C24.2709 69.1127 25.9133 69.4859 27.6676 69.6726C28.5634 69.7472 29.4219 69.8219 30.2803 69.8219C31.1015 69.8219 31.9227 69.7845 32.7065 69.7099C36.5138 69.3366 39.5372 68.6274 41.8514 67.545C44.1283 66.4252 45.92 65.1561 47.189 63.6631C48.4581 62.17 49.2793 60.6023 49.6899 58.8853C49.8392 58.2508 49.9512 57.6909 50.0258 57.131C50.847 57.5789 51.7428 57.9149 52.7133 58.1761C54.169 58.5494 55.7367 58.736 57.379 58.7734C57.5283 58.7734 57.6403 58.7734 57.7896 58.7734C59.8052 58.7734 61.7835 58.5494 63.7991 58.0642C65.8894 57.5789 67.793 56.6458 69.5473 55.2274C69.5473 55.8246 69.5473 56.3845 69.622 56.9444C69.6593 57.5043 69.7713 58.0642 69.8833 58.624C70.5925 58.6987 71.8615 58.736 73.4292 58.736C79.1401 58.736 88.9942 58.3254 91.3084 58.1015C90.6739 51.8307 90.002 45.5226 89.3301 39.2518C89.1435 37.6468 89.2555 36.3404 89.6661 35.2953C90.0766 34.2502 90.6365 33.4663 91.3084 32.8691C91.9803 32.2719 92.7268 31.8613 93.4733 31.6C94.2572 31.3387 94.8544 31.1894 95.3396 31.1521C95.6755 31.1148 95.9742 31.1148 96.2728 31.1148C97.4299 31.1148 98.363 31.3014 99.0349 31.6373C99.8934 32.0852 100.528 32.6825 100.901 33.4663C101.312 34.2502 101.536 35.1086 101.648 36.0418C101.76 36.975 101.797 37.9454 101.872 38.9159C102.17 45.0001 102.469 51.1215 102.73 57.2057C105.716 57.0564 108.74 57.019 111.726 57.019C111.726 50.9722 111.688 44.8881 111.688 38.8413C111.688 37.8334 111.763 36.8256 111.912 35.8552C112.062 34.8847 112.398 33.9889 112.883 33.205C113.368 32.4212 114.077 31.7866 114.973 31.3387C115.794 30.8908 116.839 30.6669 118.108 30.6669C118.22 30.6669 118.332 30.6669 118.444 30.6669C119.863 30.7042 121.02 30.9655 121.841 31.4134C122.662 31.8613 123.259 32.4585 123.67 33.205C124.081 33.9515 124.267 34.81 124.342 35.7805C124.379 36.751 124.379 37.7961 124.342 38.8786C124.006 45.0374 123.67 51.1962 123.334 57.355C126.246 57.5416 138.787 58.9973 142.072 59.4452C142.744 54.5928 143.49 49.7031 144.386 44.8507C144.573 45.448 144.797 46.0079 145.058 46.5677C145.916 48.546 147.073 50.1884 148.567 51.5694C150.022 52.9505 151.777 54.033 153.83 54.7795C155.808 55.526 158.085 55.8619 160.697 55.8619C160.809 55.8619 160.921 55.8619 161.033 55.8619C163.273 55.8246 165.401 55.4513 167.454 54.6675C169.506 53.8836 171.149 52.6892 172.418 51.0095C172.455 51.0095 172.53 51.0095 172.567 51.0095C172.455 52.4653 172.381 53.921 172.269 55.3767C172.157 57.7282 171.41 59.6319 170.066 61.1249C168.76 62.5806 166.819 63.2525 164.206 63.2525C164.169 63.2525 164.094 63.2525 164.057 63.2525C162.34 63.2525 160.847 62.9165 159.503 62.282C158.159 61.6475 157.226 60.4904 156.704 58.8107C153.419 58.96 150.172 59.2213 146.887 59.5572C147.223 61.4235 147.969 62.9539 149.052 64.223C150.134 65.492 151.441 66.4625 152.934 67.209C154.427 67.9556 156.032 68.5154 157.749 68.8514C159.466 69.1873 161.145 69.3739 162.75 69.3739C166.595 69.3739 169.656 69.0007 172.007 68.1422C174.359 67.2837 176.262 66.2012 177.681 64.8575C179.099 63.5138 180.107 62.0207 180.742 60.3784C181.227 59.072 181.563 57.8402 181.787 56.7577C183.018 58.4747 184.437 59.8931 186.042 61.0876C187.945 62.4686 190.073 63.4764 192.462 64.111C194.366 64.5962 196.344 64.8575 198.509 64.8575C199.069 64.8575 199.666 64.8575 200.263 64.8202C203.1 64.6709 205.675 64.1483 207.99 63.2525C210.341 62.3567 212.357 61.1249 214.111 59.5572C215.865 57.9522 217.284 56.0486 218.366 53.7717C219.449 51.4948 220.083 48.9566 220.233 46.0452C220.382 43.1711 220.009 40.5209 219.038 38.0947C218.068 35.6685 216.612 33.6156 214.596 31.8613C212.618 30.1443 210.154 28.8005 207.243 27.942C204.854 27.1955 202.241 26.8223 199.442 26.8223C198.807 26.8223 198.136 26.8223 197.501 26.8596C193.955 27.0836 190.782 27.8301 188.095 29.0245C187.124 29.4724 186.228 29.9577 185.37 30.5176C185.631 28.6886 185.855 26.8596 186.117 24.9933C182.235 24.4707 178.353 24.0975 174.433 23.8362C174.322 25.3292 174.21 26.7849 174.135 28.278C174.098 28.278 174.023 28.278 173.948 28.278C172.604 26.2624 170.85 24.7693 168.648 23.8735C166.52 23.015 164.02 22.5671 161.145 22.5671C161.071 22.5671 160.959 22.5671 160.884 22.5671C157.749 22.6044 154.949 23.1643 152.635 24.2094C150.918 24.956 149.425 25.9264 148.156 27.0462C148.417 25.9638 148.679 24.8813 148.94 23.8362C144.199 23.0897 139.422 22.7164 134.569 22.7164C133.935 22.7164 133.263 22.7164 132.628 22.7164C132.516 24.3961 132.404 26.0757 132.33 27.7927C132.068 27.4941 131.807 27.1955 131.509 26.9343C130.351 25.8891 128.933 25.1426 127.216 24.5827C125.536 24.0601 123.67 23.7242 121.617 23.6496C121.393 23.6496 121.132 23.6496 120.908 23.6496C118.556 23.6496 116.466 24.1348 114.675 25.1053C112.734 26.1877 111.241 27.4568 110.158 28.8752C109.113 26.8596 107.583 25.4785 105.567 24.732C103.85 24.0975 101.984 23.7615 99.968 23.7615C99.6321 23.7615 99.2588 23.7615 98.9229 23.7989C96.4221 23.9482 94.2198 24.5827 92.3909 25.6652C90.5619 26.7476 89.0315 28.2033 87.8744 30.0323C87.8371 30.0323 87.7624 30.0323 87.7251 30.0323C87.5758 28.5766 87.3892 27.1209 87.2399 25.6278C84.7763 25.8891 82.2755 26.1877 79.812 26.5237C79.3267 26.1504 78.8042 25.8145 78.2443 25.4785C76.5273 24.5081 74.5117 23.7989 72.3095 23.3136C70.0699 22.8657 67.8303 22.5298 65.6281 22.4178C64.8816 22.4178 64.1351 22.4178 63.3885 22.4178ZM134.532 7.59937C134.308 7.59937 134.047 7.59937 133.823 7.59937C133.524 10.3242 133.263 14.654 133.039 17.3788C133.561 17.3788 134.047 17.3788 134.532 17.3788C139.832 17.3788 145.095 17.8267 150.284 18.6479C150.993 15.9977 151.739 11.7799 152.486 9.12973C146.588 8.12193 140.579 7.59937 134.532 7.59937Z" fill="#3D3884"/>
<path d="M150.993 7.59925C144.834 6.55412 138.601 6.03156 132.293 6.06888C131.994 8.79368 131.733 13.1235 131.509 15.8483C137.332 15.7737 143.08 16.1842 148.791 17.1174C149.462 14.4672 150.209 10.2121 150.993 7.59925ZM217.471 36.5643C216.5 34.1381 215.044 32.0851 213.066 30.3308C211.088 28.6138 208.624 27.2701 205.713 26.4116C202.801 25.5158 199.517 25.1425 195.971 25.3664C192.425 25.5904 189.252 26.3369 186.565 27.5314C185.594 27.9793 184.698 28.5018 183.84 29.0244C184.101 27.1954 184.325 25.3664 184.586 23.5001C180.704 22.9776 176.822 22.6043 172.903 22.343C172.791 23.8361 172.679 25.2918 172.605 26.7848C172.567 26.7848 172.493 26.7848 172.455 26.7848C171.112 24.7692 169.357 23.2762 167.155 22.3804C164.953 21.4845 162.34 21.0366 159.391 21.0739C156.256 21.1113 153.456 21.6712 151.142 22.7163C149.425 23.4628 147.932 24.4333 146.663 25.5531C146.924 24.4706 147.186 23.3882 147.447 22.343C142.072 21.4845 136.622 21.1113 131.135 21.2233C131.023 22.9029 130.911 24.5826 130.837 26.2996C130.576 26.001 130.314 25.7024 130.016 25.4411C128.859 24.4333 127.44 23.6494 125.723 23.0896C124.043 22.567 122.177 22.2311 120.124 22.1564C117.474 22.0444 115.123 22.567 113.182 23.6121C111.241 24.6946 109.748 25.9637 108.628 27.382C107.583 25.3664 106.052 23.9854 104.037 23.2389C102.021 22.4923 99.7815 22.1564 97.3927 22.3057C94.8918 22.455 92.6896 23.0522 90.8606 24.172C89.0316 25.2545 87.5013 26.7102 86.3442 28.5018C86.3068 28.5018 86.2322 28.5018 86.1949 28.5018C86.0456 27.0461 85.8589 25.5904 85.7096 24.0974C83.2461 24.3586 80.7453 24.6572 78.2817 24.9932C77.7965 24.6199 77.2739 24.2467 76.714 23.9481C74.9971 22.9776 72.9814 22.2684 70.7792 21.7831C68.5397 21.3352 66.3001 20.9993 64.0979 20.8873C61.6343 20.738 59.2081 20.85 56.7446 21.1859C54.3184 21.5219 52.1162 22.1937 50.1752 23.1269C49.3541 23.5375 48.6076 24.0227 47.8984 24.5079C47.861 23.4628 47.7864 22.455 47.7491 21.4099C43.8671 21.3726 39.9479 21.4099 36.1033 21.6338C36.29 23.1269 36.4393 24.5826 36.6259 26.0756C36.5512 26.0756 36.5139 26.0756 36.4766 26.0756C34.7969 24.2093 32.7813 22.9403 30.4671 22.3057C28.153 21.6712 25.5028 21.5219 22.6287 21.8578C19.568 22.2311 16.9552 23.0896 14.8276 24.3586C12.7 25.6277 11.095 27.1954 9.97518 28.9871C8.8554 30.7787 8.18353 32.7197 7.95958 34.8473C7.73562 36.9375 7.92225 39.0278 8.48214 41.118C9.07936 43.3203 9.93786 45.3359 11.0576 47.2022C12.1774 49.0685 13.5212 50.5988 15.1635 51.8306C16.7685 53.0624 18.6348 53.9582 20.7624 54.5181C22.89 55.078 25.2789 55.1526 28.0037 54.854C30.2059 54.5927 32.2588 53.9955 34.1997 53.025C36.1407 52.0546 37.6337 50.6735 38.6042 48.8445C38.6415 48.8445 38.7162 48.8445 38.7535 48.8445C38.8655 50.3002 38.9774 51.756 39.0521 53.249C39.2387 55.6005 38.7535 57.5788 37.5964 59.2212C36.4393 60.8262 34.5356 61.722 31.8482 61.9833C30.1312 62.1326 28.6009 61.9833 27.2198 61.4607C25.8387 60.9755 24.7936 59.9304 24.0471 58.288C20.8371 58.7359 17.627 59.3331 14.4543 60.005C15.0142 61.834 15.91 63.2897 17.1045 64.4468C18.3362 65.6039 19.68 66.4624 21.2476 67.0596C22.778 67.6568 24.4204 68.0301 26.1747 68.2167C27.929 68.4034 29.6087 68.4034 31.2136 68.2167C35.0209 67.8435 38.0443 67.1716 40.3585 66.0518C42.6354 64.932 44.427 63.663 45.6961 62.1699C46.9279 60.6769 47.7864 59.1092 48.197 57.3922C48.3463 56.7576 48.4582 56.1977 48.5329 55.6379C49.3541 56.0858 50.2499 56.4217 51.2204 56.683C52.6761 57.0562 54.2438 57.2429 55.8861 57.2802C58.051 57.3175 60.1786 57.0562 62.2689 56.571C64.3965 56.0858 66.2628 55.1526 68.0171 53.7342C68.0171 54.3314 68.0171 54.8913 68.0917 55.4512C68.1291 56.0111 68.241 56.571 68.353 57.1309C71.5631 57.4668 86.8294 56.9069 89.8155 56.571C89.1809 50.3002 88.5091 43.9921 87.8372 37.7214C87.6506 36.1163 87.7626 34.8099 88.1731 33.7648C88.5837 32.7197 89.1436 31.9358 89.8155 31.3386C90.4874 30.7414 91.2339 30.3308 91.9804 30.0695C92.7642 29.8082 93.3615 29.6589 93.8467 29.6216C95.4517 29.5096 96.7208 29.6589 97.5793 30.1069C98.4378 30.5548 99.0723 31.152 99.4456 31.9358C99.8562 32.7197 100.08 33.5782 100.192 34.5113C100.304 35.4445 100.341 36.415 100.416 37.3854C100.715 43.4696 101.013 49.591 101.275 55.6752C104.261 55.5259 107.284 55.4886 110.27 55.4886C110.27 49.4044 110.233 43.3576 110.233 37.3108C110.233 36.303 110.307 35.2952 110.457 34.3247C110.606 33.3542 110.942 32.4584 111.427 31.6745C111.913 30.8907 112.622 30.2562 113.518 29.8082C114.413 29.323 115.57 29.099 116.989 29.1364C118.407 29.1737 119.564 29.435 120.386 29.8829C121.207 30.3308 121.804 30.9653 122.214 31.6745C122.625 32.4211 122.812 33.2796 122.886 34.25C122.924 35.2205 122.924 36.2656 122.886 37.3481C122.55 43.5069 122.214 49.6657 121.879 55.8245C124.79 55.9738 137.332 57.4668 140.616 57.9147C141.288 53.025 142.072 48.1726 142.93 43.3203C143.117 43.9175 143.341 44.4774 143.602 45.0373C144.461 47.0155 145.618 48.6579 147.074 50.039C148.529 51.42 150.284 52.5025 152.337 53.249C154.39 53.9955 156.778 54.3314 159.541 54.3314C161.78 54.2941 163.908 53.9209 165.961 53.137C168.014 52.3532 169.656 51.1587 170.925 49.4791C170.962 49.4791 171.037 49.4791 171.074 49.4791C170.962 50.9348 170.888 52.3905 170.776 53.8462C170.664 56.1978 169.917 58.1014 168.573 59.5944C167.23 61.0875 165.251 61.7593 162.564 61.722C160.847 61.722 159.354 61.3861 158.01 60.7515C156.666 60.117 155.733 58.9599 155.211 57.2429C151.926 57.3922 148.679 57.6535 145.394 57.9894C145.73 59.8557 146.476 61.3861 147.596 62.6551C148.679 63.9242 149.985 64.8947 151.478 65.6412C152.971 66.3877 154.576 66.9476 156.293 67.2836C158.01 67.6195 159.69 67.8061 161.295 67.8061C165.139 67.8061 168.2 67.4329 170.552 66.5744C172.903 65.7159 174.807 64.6334 176.225 63.2897C177.644 61.946 178.651 60.4529 179.286 58.8106C179.771 57.5042 180.107 56.2724 180.331 55.1899C181.563 56.9069 182.981 58.3253 184.586 59.5198C186.49 60.9008 188.617 61.9086 191.006 62.5432C193.395 63.1777 195.971 63.4017 198.808 63.215C201.644 63.0657 204.22 62.5432 206.534 61.6473C208.886 60.7515 210.901 59.5198 212.655 57.9521C214.41 56.3471 215.828 54.4434 216.911 52.1665C217.993 49.8897 218.628 47.3515 218.777 44.44C218.814 41.6406 218.441 38.9904 217.471 36.5643ZM37.5217 41.3793C37.2231 42.4991 36.7379 43.5069 36.066 44.4027C35.3941 45.2985 34.4983 46.0451 33.4159 46.6423C32.3334 47.2395 31.0643 47.6128 29.5713 47.7621C27.9663 47.9487 26.5479 47.7994 25.3908 47.3142C24.2337 46.8662 23.2259 46.1944 22.3674 45.3732C21.5089 44.552 20.8371 43.5442 20.3518 42.4244C19.8666 41.3047 19.456 40.1475 19.232 38.9531C18.9708 37.7214 18.8961 36.5269 19.0081 35.3698C19.1201 34.2127 19.4933 33.1303 20.0905 32.1598C20.6878 31.1893 21.5463 30.3681 22.5914 29.6963C23.6738 29.0244 25.0176 28.6138 26.6972 28.4272C28.6009 28.2406 30.2805 28.3899 31.6242 28.8378C32.9679 29.2857 34.0504 29.9949 34.9462 30.8907C35.8047 31.7865 36.4766 32.8317 36.9245 34.0634C37.3724 35.2578 37.6337 36.5643 37.783 37.9453C37.895 39.1024 37.8203 40.2595 37.5217 41.3793ZM68.6143 43.6189C68.5396 44.1414 68.4277 44.8506 68.2037 45.7465C67.9798 46.6423 67.5692 47.4635 66.972 48.2846C66.3747 49.1058 65.4789 49.7777 64.3591 50.3002C63.2394 50.8601 61.6717 51.0468 59.7307 50.9721C58.9469 50.9348 58.163 50.8228 57.4165 50.7108C56.67 50.5615 55.9981 50.3002 55.4382 49.9643C54.8783 49.6284 54.4304 49.1431 54.0945 48.5832C53.7585 47.986 53.6092 47.2768 53.6092 46.4183C53.6092 45.5225 53.7959 44.776 54.1318 44.2161C54.4677 43.6189 54.953 43.1336 55.5502 42.7604C56.1474 42.3871 56.8193 42.0885 57.6031 41.9019C58.387 41.7153 59.1708 41.5286 59.992 41.454C60.8505 41.342 61.709 41.3047 62.5675 41.23C63.426 41.1927 64.2472 41.118 65.031 41.0434C65.8149 40.9687 66.5614 40.8567 67.2706 40.7074C67.9798 40.5581 68.577 40.3342 69.0622 40.0356C68.9129 41.2673 68.7636 42.4244 68.6143 43.6189ZM69.9207 32.533C69.8461 33.5035 69.4355 34.2127 68.6143 34.6606C67.8305 35.1085 66.7853 35.4071 65.5162 35.5938C64.2472 35.7804 62.7914 35.8551 61.1864 35.9297C59.5814 35.967 57.9017 36.1163 56.2594 36.303C54.5797 36.4896 52.9374 36.7882 51.295 37.1988C50.2499 37.4601 49.3167 37.796 48.4582 38.2439C48.4209 36.2656 48.3463 34.3247 48.2716 32.3464C50.5485 32.2718 52.7881 32.2344 55.065 32.2344C55.3262 30.3681 56.1474 29.0244 57.4911 28.2406C58.8349 27.4567 60.7012 27.1208 62.9781 27.2327C64.0232 27.3074 64.9937 27.4194 65.8895 27.606C66.7853 27.7926 67.5692 28.0539 68.2037 28.4645C68.8383 28.8751 69.3235 29.3603 69.6594 29.9949C69.958 30.6667 70.0327 31.5252 69.9207 32.533ZM171.746 38.5799C171.671 39.7743 171.373 40.9314 170.925 41.9765C170.477 43.059 169.843 43.9921 169.021 44.8133C168.237 45.6345 167.23 46.269 166.073 46.7543C164.915 47.2395 163.572 47.4635 162.079 47.4635C160.436 47.4635 159.055 47.1648 157.973 46.605C156.853 46.0077 155.957 45.2985 155.248 44.3654C154.539 43.4322 153.979 42.3871 153.68 41.23C153.344 40.0729 153.12 38.8785 153.083 37.684C153.008 36.4523 153.158 35.2578 153.456 34.1007C153.755 32.9436 154.278 31.8985 155.061 31.0027C155.845 30.1069 156.816 29.3603 158.01 28.8378C159.205 28.3152 160.66 28.0166 162.303 28.0539C164.244 28.0539 165.886 28.3899 167.155 28.9871C168.424 29.5843 169.395 30.4055 170.104 31.3759C170.813 32.3464 171.298 33.4662 171.522 34.7353C171.783 35.8924 171.821 37.1988 171.746 38.5799ZM207.019 48.3593C206.721 49.7403 206.235 50.9721 205.526 52.0919C204.817 53.2117 203.847 54.0702 202.689 54.742C201.495 55.4139 200.039 55.8245 198.285 55.8991C196.531 56.0111 195.038 55.7872 193.806 55.2273C192.574 54.6674 191.529 53.8835 190.708 52.8757C189.887 51.8679 189.215 50.6735 188.729 49.3671C188.244 48.0234 187.908 46.6796 187.722 45.2239C187.535 43.8055 187.498 42.3498 187.647 40.9314C187.796 39.513 188.17 38.2439 188.841 37.0868C189.513 35.967 190.446 34.9592 191.716 34.1754C192.985 33.3915 194.627 32.9063 196.643 32.7943C198.658 32.6823 200.375 32.9436 201.794 33.5782C203.212 34.2127 204.332 35.0712 205.153 36.1163C205.974 37.1615 206.571 38.3932 206.945 39.8116C207.281 41.1927 207.467 42.6111 207.504 44.0668C207.43 45.5598 207.281 46.9782 207.019 48.3593Z" fill="white"/>
<path d="M146.066 67.1717C145.73 65.7533 145.17 64.4842 144.386 63.3644C143.565 62.2073 142.52 61.2368 141.251 60.4903C139.944 59.7438 138.414 59.3332 136.734 59.2586H136.66C135.465 59.2212 134.345 59.3705 133.3 59.7065C132.964 59.5572 132.591 59.4825 132.18 59.4825C132.18 59.4825 132.18 59.4825 132.143 59.4825L128.336 59.3332C127.888 59.1092 127.365 58.9599 126.843 58.9226C126.693 58.9226 126.544 58.9226 126.395 58.9226L122.326 59.2586C121.393 59.3332 120.535 59.7811 119.937 60.453C119.788 60.6396 119.676 60.8262 119.564 61.0129C118.967 60.229 118.034 59.7438 116.989 59.7065C116.839 59.7065 116.69 59.7065 116.541 59.7065L112.472 60.0424C112.062 60.0797 111.614 60.1917 111.24 60.3783C111.017 60.3037 110.83 60.1917 110.606 60.117C109.523 59.7065 108.329 59.4825 107.097 59.4452C106.761 59.4452 106.425 59.4452 106.089 59.4452C104.559 59.4825 103.141 59.7811 101.872 60.2663C101.312 59.6691 100.528 59.2585 99.6694 59.1466C99.5201 59.1466 99.3335 59.1092 99.1842 59.1092C98.6989 59.1092 98.2137 59.1092 97.8031 59.1839C96.9446 59.3332 96.1234 59.6318 95.3396 60.0051C95.0783 60.1544 94.817 60.3037 94.5931 60.453C94.3691 60.4157 94.1452 60.3783 93.9212 60.341C93.6599 60.341 93.3986 60.341 93.1374 60.3783L92.7641 60.453C92.1669 59.8184 91.3084 59.4078 90.3752 59.3332C90.3006 59.3332 90.2259 59.3332 90.1139 59.3332L86.232 59.4452C85.8588 59.4452 85.4855 59.5198 85.1123 59.6691C84.2911 59.3705 83.4326 59.2212 82.4994 59.1839C82.2382 59.1839 81.9769 59.1839 81.7156 59.1839C80.1106 59.2212 78.6922 59.5945 77.4231 60.3037C76.1913 60.9755 75.1462 61.8714 74.325 62.9538C73.5412 63.999 72.9813 65.1934 72.608 66.4998C72.2721 67.7316 72.1228 69.038 72.1228 70.3444C72.1601 71.6508 72.3468 72.9199 72.72 74.1143C72.9813 75.0101 73.3546 75.8686 73.8025 76.6152C73.7651 76.6152 73.7651 76.6525 73.7278 76.6898C73.0933 77.399 72.7573 78.3695 72.8693 79.34C73.0186 80.7957 73.4665 82.1021 74.2877 83.2219C74.9969 84.2297 75.8927 85.0135 76.9752 85.648C77.9457 86.2079 78.9908 86.5812 80.1106 86.8425C80.8198 86.9918 81.5663 87.0664 82.2755 87.1038C82.5741 87.1038 82.8727 87.1038 83.1713 87.1038C85.4109 87.0291 87.2025 86.6559 88.6582 85.9467C90.1513 85.2375 91.3457 84.3043 92.1669 83.1845C92.2789 83.0352 92.3908 82.8859 92.5028 82.7366C92.6894 82.7366 92.9134 82.7366 93.1 82.6993L97.1312 81.9901C98.251 81.8035 99.1842 81.057 99.6321 80.1238C100.416 80.6837 101.274 81.1316 102.245 81.4675C103.29 81.8408 104.447 82.0647 105.679 82.1021C106.015 82.1021 106.351 82.1021 106.687 82.1021C108.292 82.0647 109.747 81.7661 111.091 81.2063C111.8 80.9076 112.435 80.5717 113.069 80.1238C113.779 80.6837 114.6 81.1316 115.533 81.4302C116.242 81.6542 117.063 81.8035 117.922 81.8408C118.444 81.8408 119.004 81.8408 119.564 81.8035C120.684 81.7288 121.804 81.4302 122.849 80.9076C123.11 80.9823 123.409 81.057 123.707 81.057C123.745 81.057 123.782 81.057 123.819 81.057L123.745 82.774C123.707 83.7071 124.043 84.6029 124.678 85.2748C125.312 85.9467 126.171 86.3572 127.067 86.3946C127.067 86.3946 127.067 86.3946 127.104 86.3946L131.173 86.5439C133.114 86.6185 134.719 85.1255 134.793 83.1845L134.831 81.8035C135.166 81.8408 135.465 81.8781 135.801 81.8781C135.801 81.8781 135.838 81.8781 135.876 81.8781C137.518 81.9528 139.048 81.6542 140.392 81.0196C141.699 80.4224 142.781 79.5639 143.714 78.4815C144.573 77.4737 145.207 76.2792 145.655 74.9355C146.066 73.7037 146.29 72.4346 146.327 71.0909C146.514 69.8218 146.364 68.4781 146.066 67.1717ZM108.068 66.4251C108.553 66.6864 108.926 67.0224 109.225 67.4703C109.523 67.9182 109.71 68.4034 109.859 68.9633C110.009 69.5232 110.046 70.1204 110.083 70.7176C110.083 71.0162 110.083 71.3149 110.083 71.6135C110.121 71.3149 110.121 71.0162 110.083 70.7176C110.083 70.1204 110.009 69.5232 109.859 68.9633C109.71 68.4034 109.523 67.8809 109.225 67.4703C108.926 67.0224 108.553 66.6864 108.068 66.4251C107.881 66.3132 107.695 66.2385 107.471 66.2012C107.695 66.2385 107.918 66.3132 108.068 66.4251ZM106.985 62.9538H107.023C106.761 62.9538 106.5 62.9538 106.239 62.9538C106.5 62.9538 106.761 62.9538 106.985 62.9538ZM106.537 71.8747C106.537 71.9121 106.537 71.9494 106.5 71.9494C106.5 71.9121 106.5 71.8747 106.463 71.8747C106.388 71.5388 106.351 71.2029 106.351 70.8296C106.351 70.4564 106.351 70.1204 106.425 69.7472C106.425 69.7098 106.425 69.7098 106.425 69.6725C106.425 69.7098 106.425 69.7472 106.463 69.7472C106.537 70.0831 106.575 70.4564 106.612 70.8296C106.612 71.1656 106.575 71.5388 106.537 71.8747ZM99.1095 62.6552C99.1842 62.6552 99.2962 62.6552 99.3708 62.6925C99.2588 62.6925 99.1468 62.6925 99.0349 62.6925C99.0722 62.6552 99.0722 62.6552 99.1095 62.6552ZM84.6643 66.1639C85.1123 66.3878 85.4855 66.7237 85.7468 67.1343C86.0081 67.5449 86.232 68.0302 86.344 68.5527C86.456 69.1126 86.5306 69.6725 86.568 70.307C86.5306 69.7098 86.4933 69.1126 86.344 68.5527C86.232 67.9928 86.0081 67.5449 85.7468 67.1343C85.4855 66.7237 85.1123 66.3878 84.6643 66.1639C84.515 66.0892 84.3284 66.0146 84.1045 65.9772C84.3284 65.9772 84.515 66.0519 84.6643 66.1639ZM82.4248 62.7672C82.4621 62.7672 82.4621 62.7672 82.4994 62.7672C82.3128 62.7672 82.1262 62.7672 81.9022 62.7672C82.0889 62.7672 82.2755 62.7672 82.4248 62.7672ZM79.9613 68.5527C80.0732 68.0302 80.2599 67.5822 80.5212 67.1717C80.7824 66.7611 81.1184 66.4625 81.529 66.2012C81.9395 65.9399 82.4248 65.8279 82.9847 65.8279C82.4248 65.8279 81.9022 65.9772 81.529 66.2012C81.1557 66.4251 80.7824 66.7611 80.5212 67.1717C80.2599 67.5822 80.0732 68.0302 79.9613 68.5527C79.8866 68.814 79.8493 69.0753 79.8493 69.3366C79.8493 69.038 79.8866 68.814 79.9613 68.5527ZM77.3484 75.5327C77.871 76.2046 78.5429 76.7271 79.3641 77.0631C79.5507 77.1377 79.7373 77.2124 79.9613 77.287C79.7746 77.2124 79.5507 77.1377 79.3641 77.0631C78.5429 76.6898 77.871 76.1672 77.3484 75.5327ZM80.8944 83.4085C80.1479 83.2592 79.4387 82.9979 78.8042 82.6246C78.1696 82.2514 77.6471 81.7661 77.1991 81.1689C77.0872 81.0196 77.0125 80.8703 76.9005 80.721C76.9752 80.8703 77.0872 81.0196 77.1991 81.1689C77.6471 81.7661 78.1696 82.2514 78.8042 82.6246C79.4387 82.9979 80.1479 83.2592 80.8944 83.4085C81.2304 83.4831 81.5663 83.5205 81.9022 83.5578C81.5663 83.5578 81.2304 83.4831 80.8944 83.4085ZM81.6783 77.623C81.6409 77.623 81.6036 77.623 81.5663 77.623C81.7902 77.623 82.0515 77.623 82.2755 77.623C83.1713 77.5856 84.0298 77.399 84.851 76.9884C85.6721 76.5778 86.2694 75.9806 86.68 75.1968H86.7546L86.7919 77.1377C86.7919 77.399 86.7919 77.6603 86.7919 77.8842C86.8293 77.6603 86.8293 77.399 86.7919 77.1377L86.7546 75.1968H86.68C86.2694 75.9806 85.6348 76.5778 84.851 76.9884C84.0298 77.399 83.2086 77.5856 82.2755 77.623C82.0889 77.623 81.8649 77.623 81.6783 77.623ZM90.4872 78.9294C90.3379 79.7132 90.002 80.4224 89.4794 81.0943C88.9568 81.7661 88.2103 82.3634 87.2025 82.8486C86.1947 83.3338 84.851 83.5951 83.134 83.6698C82.91 83.6698 82.7234 83.6698 82.4994 83.6698C82.3875 83.6698 82.2755 83.6698 82.2008 83.6324C82.5368 83.6698 82.8354 83.6698 83.1713 83.6698C84.8883 83.6324 86.232 83.3712 87.2398 82.8486C88.2476 82.3634 88.9942 81.7661 89.5167 81.0943C90.002 80.4224 90.3379 79.6759 90.4872 78.9294C90.5619 78.5561 90.5992 78.1828 90.6365 77.8469C90.5992 78.1455 90.5619 78.5188 90.4872 78.9294ZM96.758 67.2463C96.3101 67.5823 95.9368 67.9928 95.7128 68.4781C95.4889 68.9633 95.3396 69.4859 95.3023 70.0831C95.3396 69.4859 95.4516 68.9633 95.7128 68.4781C95.9368 67.9555 96.3101 67.5823 96.758 67.2463C97.2059 66.9104 97.8404 66.6864 98.5496 66.5371C98.8109 66.4998 99.0349 66.4625 99.3335 66.4625C99.5201 66.4625 99.7067 66.4625 99.856 66.4251C99.7067 66.4251 99.5201 66.4251 99.3335 66.4625C99.0722 66.4625 98.8109 66.4998 98.5496 66.5371C97.8404 66.6491 97.2432 66.9104 96.758 67.2463ZM103.514 78.1455C102.544 77.8096 101.76 77.3243 101.05 76.6525C100.341 75.9806 99.8187 75.1968 99.4081 74.2263C99.0349 73.2931 98.8109 72.2107 98.7736 71.0163C98.7736 70.7176 98.7736 70.419 98.7736 70.1577C98.7736 70.4564 98.7736 70.7176 98.7736 71.0163C98.8109 72.2107 99.0349 73.2558 99.4081 74.2263C99.8187 75.1594 100.341 75.9806 101.05 76.6525C101.722 77.3243 102.544 77.8096 103.514 78.1455ZM106.313 66.0519C105.642 66.0519 105.044 66.2385 104.596 66.4998C104.149 66.7984 103.775 67.1717 103.514 67.6196C103.253 68.0675 103.066 68.5901 102.954 69.1499C102.917 69.4486 102.879 69.7472 102.842 70.0084C102.879 69.7098 102.879 69.4112 102.954 69.1499C103.066 68.5527 103.253 68.0675 103.514 67.6196C103.775 67.1717 104.149 66.7984 104.596 66.4998C105.082 66.2012 105.642 66.0519 106.313 66.0519ZM116.653 78.1082C115.944 77.8842 115.346 77.511 114.898 77.0257C114.451 76.5405 114.115 75.906 113.891 75.1594C113.779 74.7862 113.704 74.4129 113.629 74.0023C113.293 74.8982 112.808 75.682 112.211 76.3539C111.539 77.0631 110.755 77.5856 109.822 77.9962C108.889 78.4068 107.844 78.5934 106.649 78.6308C106.388 78.6308 106.127 78.6308 105.903 78.6308H105.866C106.127 78.6308 106.388 78.6308 106.649 78.6308C107.806 78.5934 108.889 78.4068 109.822 77.9962C110.755 77.5856 111.539 77.0631 112.211 76.3539C112.808 75.682 113.293 74.8982 113.629 74.0023C113.704 74.4129 113.779 74.7862 113.891 75.1594C114.115 75.906 114.451 76.5032 114.898 77.0257C115.384 77.511 115.944 77.8842 116.653 78.1082ZM118.146 78.3695C118.108 78.3695 118.071 78.3695 118.034 78.3695C118.108 78.3695 118.183 78.3695 118.295 78.3695C118.258 78.3695 118.183 78.3695 118.146 78.3695ZM131.994 68.702C132.143 68.1421 132.33 67.6196 132.628 67.209C132.927 66.7611 133.3 66.4251 133.748 66.1639C134.196 65.9026 134.793 65.7906 135.428 65.8279C134.756 65.7906 134.196 65.9026 133.748 66.1639C133.3 66.4251 132.927 66.7611 132.628 67.209C132.367 67.6569 132.143 68.1421 131.994 68.702C131.919 69.0006 131.882 69.2619 131.844 69.5605C131.882 69.2992 131.956 69.0006 131.994 68.702ZM135.278 71.4642C135.241 71.2029 135.241 70.9043 135.241 70.643C135.241 70.3444 135.278 70.0831 135.316 69.8218C135.353 70.0831 135.353 70.3817 135.353 70.6803C135.39 70.9043 135.353 71.1655 135.278 71.4642ZM137.145 66.3132C137.593 66.6118 137.929 66.985 138.227 67.4329C138.488 67.8809 138.675 68.4034 138.787 69.0006C138.899 69.5979 138.936 70.1577 138.899 70.755C138.936 70.1577 138.899 69.5605 138.787 69.0006C138.675 68.4034 138.488 67.8809 138.227 67.4329C137.929 66.985 137.555 66.6118 137.145 66.3132C137.145 66.3132 137.107 66.3132 137.107 66.2758C137.107 66.2758 137.107 66.2758 137.145 66.3132ZM136.548 62.7672C136.697 62.7672 136.846 62.8045 136.995 62.8045C136.846 62.8045 136.697 62.7672 136.51 62.7672H136.548ZM139.048 77.8842C138.227 78.2575 137.257 78.4441 136.174 78.4068H136.137C136.025 78.4068 135.876 78.3695 135.764 78.3695C135.913 78.3695 136.025 78.4068 136.174 78.4068C137.257 78.4441 138.227 78.2575 139.048 77.8842Z" fill="#2E2B5B"/>
<path d="M143.08 68.59C142.856 67.6196 142.482 66.7611 141.922 65.9772C141.4 65.2307 140.728 64.6335 139.907 64.1482C139.086 63.663 138.078 63.4017 136.921 63.3644C135.988 63.3271 135.166 63.4764 134.383 63.8123C133.599 64.1482 132.964 64.7081 132.404 65.492H132.33L132.404 63.5883L128.522 63.439L128.075 75.4207L127.104 63.0284L123.035 63.3644L123.67 71.1282C123.782 72.6586 123.633 73.741 123.185 74.4502C122.737 75.1594 121.953 75.5327 120.871 75.6446C119.9 75.7193 119.191 75.4953 118.743 74.8981C118.295 74.3382 118.034 73.4424 117.959 72.2106L117.287 63.8123L113.219 64.1482L113.443 66.873C113.144 66.3878 112.808 65.9399 112.398 65.5293C111.688 64.8574 110.867 64.3722 109.934 63.9989C108.964 63.663 107.918 63.4764 106.724 63.5137C105.567 63.551 104.484 63.775 103.589 64.1856C102.655 64.5961 101.872 65.1187 101.2 65.8279C100.938 66.1265 100.677 66.4251 100.491 66.761L99.856 63.2151C99.5201 63.1777 99.2215 63.1777 98.9602 63.2151C98.4376 63.2897 97.9897 63.4764 97.5418 63.7003C97.0939 63.9243 96.6833 64.2229 96.3101 64.5961C95.9368 64.9321 95.6382 65.3427 95.3769 65.7906C95.1156 66.2385 94.929 66.6864 94.8543 67.1716H94.817L94.3318 64.4468L90.7485 65.156L90.7111 63.551L86.8292 63.663L86.9039 65.6413H86.8292C86.3067 64.7828 85.6721 64.1856 84.9256 63.8496C84.1791 63.5137 83.3206 63.3644 82.3501 63.3644C81.305 63.4017 80.4092 63.6257 79.6253 64.0362C78.8415 64.4468 78.2069 65.0067 77.6844 65.7159C77.1618 66.4251 76.7885 67.209 76.5273 68.1048C76.266 69.0006 76.154 69.9338 76.1913 70.9042C76.2287 71.912 76.378 72.8825 76.6392 73.7783C76.9005 74.6742 77.3111 75.458 77.8337 76.1299C78.3562 76.8018 79.0654 77.3243 79.8493 77.6976C80.6704 78.0708 81.6409 78.2201 82.7234 78.2201C83.6192 78.1828 84.4777 77.9962 85.2989 77.5856C86.12 77.175 86.7173 76.5778 87.1279 75.7939H87.2025L87.2398 77.7722C87.2772 78.8174 87.0532 79.7132 86.568 80.4224C86.0454 81.1316 85.2242 81.5048 84.0671 81.5422C83.3206 81.5422 82.6861 81.4302 82.1262 81.1316C81.5663 80.833 81.1557 80.3104 80.9691 79.5639L76.9005 79.6759C76.9752 80.5344 77.2365 81.2436 77.6844 81.8408C78.095 82.438 78.6548 82.9232 79.2894 83.2592C79.9239 83.6324 80.6331 83.8937 81.3796 84.043C82.1262 84.1923 82.8727 84.267 83.6192 84.267C85.3362 84.2296 86.6799 83.9684 87.6877 83.4458C88.6955 82.9605 89.4421 82.3633 89.9646 81.6915C90.4872 81.0196 90.8231 80.3104 90.9724 79.5266C91.1217 78.7427 91.1591 78.0708 91.1591 77.4736L90.8978 67.5822L93.1 79.8625L97.1312 79.1533L95.9368 72.5466C95.8248 71.8747 95.7875 71.2775 95.8248 70.6803C95.8621 70.0831 95.9741 69.5605 96.2354 69.0753C96.4594 68.59 96.8326 68.1794 97.2805 67.8435C97.7658 67.5076 98.363 67.2836 99.0722 67.1343C99.3335 67.097 99.5574 67.0597 99.856 67.0223C100.043 67.0223 100.229 67.0223 100.379 67.0223C100.117 67.4329 99.9307 67.9182 99.7441 68.4034C99.4081 69.3739 99.2588 70.4563 99.2961 71.6508C99.3335 72.8452 99.5574 73.8903 99.9307 74.8608C100.304 75.7939 100.864 76.6151 101.536 77.287C102.208 77.9589 103.029 78.4441 103.999 78.78C104.932 79.116 106.015 79.2653 107.172 79.2279C108.329 79.1906 109.411 78.9667 110.345 78.5934C111.278 78.2201 112.062 77.6603 112.734 76.9511C113.331 76.2792 113.816 75.4953 114.152 74.5995C114.227 75.0101 114.301 75.3834 114.413 75.7566C114.637 76.5031 114.973 77.1004 115.421 77.6229C115.869 78.1082 116.429 78.4814 117.175 78.7054C117.884 78.9293 118.818 79.004 119.9 78.9293C120.759 78.8547 121.58 78.5934 122.364 78.1455C123.147 77.6976 123.782 77.0257 124.23 76.1299H124.305L124.454 78.1828L128.037 77.8842L127.813 83.5204L131.882 83.6697L132.143 76.6151H132.218C132.703 77.3616 133.3 77.9215 134.084 78.3321C134.831 78.7427 135.689 78.9667 136.622 79.004C137.705 79.0413 138.675 78.892 139.496 78.4814C140.317 78.1082 141.027 77.5483 141.587 76.8764C142.146 76.2045 142.594 75.3834 142.893 74.4875C143.192 73.5917 143.378 72.6212 143.416 71.6134C143.416 70.6056 143.304 69.5605 143.08 68.59ZM86.8292 72.4719C86.7173 72.9572 86.4933 73.4051 86.232 73.8157C85.9707 74.1889 85.5975 74.5249 85.1496 74.7488C84.7017 74.9728 84.2164 75.1221 83.6192 75.1221C82.9847 75.1221 82.4621 75.0101 82.0142 74.7488C81.6036 74.4875 81.2303 74.1516 80.9691 73.741C80.7078 73.3304 80.5211 72.8452 80.3718 72.3226C80.2599 71.8001 80.1852 71.2775 80.1852 70.7176C80.1852 70.1577 80.2225 69.6352 80.3345 69.1126C80.4465 68.59 80.6331 68.1421 80.8944 67.7315C81.1557 67.3209 81.4916 67.0223 81.9022 66.761C82.3128 66.5371 82.798 66.3878 83.3579 66.3878C84.0298 66.3878 84.5897 66.4624 85.0376 66.7237C85.4855 66.9477 85.8588 67.2836 86.1201 67.6942C86.3813 68.1048 86.6053 68.59 86.7546 69.1499C86.8666 69.7098 86.9412 70.2697 86.9785 70.9042C87.0159 71.4641 86.9785 71.9494 86.8292 72.4719ZM110.382 73.0692C110.27 73.629 110.083 74.1516 109.822 74.5995C109.561 75.0474 109.188 75.4207 108.74 75.7193C108.292 76.0179 107.694 76.1672 107.023 76.1672C106.351 76.1672 105.754 76.0552 105.268 75.8313C104.783 75.57 104.41 75.2341 104.111 74.7861C103.813 74.3382 103.626 73.853 103.477 73.2558C103.365 72.6959 103.253 72.136 103.253 71.5015C103.253 70.9042 103.29 70.307 103.365 69.7471C103.477 69.1499 103.663 68.6647 103.925 68.2168C104.186 67.7689 104.559 67.3956 105.007 67.097C105.455 66.7984 106.015 66.6491 106.724 66.6491C107.396 66.6491 107.993 66.7611 108.478 67.0223C108.964 67.2836 109.337 67.6569 109.635 68.0675C109.934 68.5154 110.121 69.0006 110.27 69.5978C110.382 70.1577 110.494 70.7549 110.494 71.3522C110.531 71.912 110.457 72.5093 110.382 73.0692ZM139.048 73.1438C138.899 73.7037 138.712 74.2263 138.414 74.6368C138.115 75.0474 137.742 75.3834 137.294 75.6446C136.846 75.9059 136.286 76.0179 135.614 75.9806C134.98 75.9433 134.42 75.7939 133.972 75.5327C133.524 75.2341 133.151 74.8608 132.89 74.4502C132.628 74.0023 132.442 73.4797 132.33 72.9198C132.218 72.3226 132.18 71.7627 132.218 71.1655C132.255 70.5683 132.33 69.9711 132.442 69.3739C132.591 68.814 132.778 68.2914 133.076 67.8808C133.375 67.4329 133.748 67.097 134.196 66.8357C134.644 66.5744 135.241 66.4624 135.913 66.4998C136.548 66.5371 137.107 66.6864 137.555 66.985C138.003 67.2836 138.339 67.6569 138.6 68.1048C138.862 68.5527 139.048 69.0753 139.16 69.6725C139.272 70.2697 139.31 70.8296 139.272 71.4268C139.272 71.9867 139.198 72.5466 139.048 73.1438Z" fill="#3D3884"/>
<path d="M142.258 67.3582C142.034 66.3877 141.661 65.5292 141.139 64.7454C140.616 63.9989 139.944 63.4017 139.123 62.9164C138.302 62.4312 137.294 62.1699 136.137 62.1326C135.204 62.0952 134.383 62.2445 133.599 62.5805C132.815 62.9164 132.18 63.4763 131.62 64.2602H131.546L131.62 62.3565L127.739 62.2072L127.291 74.1889L126.32 61.7966L122.252 62.1326L122.886 69.8964C122.998 71.4268 122.849 72.5092 122.401 73.2184C121.953 73.9276 121.169 74.3008 120.087 74.4128C119.116 74.4875 118.407 74.2262 117.996 73.6663C117.549 73.1064 117.287 72.2106 117.213 70.9788L116.541 62.5805L112.472 62.9164L112.696 65.6412C112.398 65.156 112.062 64.7081 111.651 64.3348C110.942 63.6629 110.121 63.1777 109.187 62.8044C108.217 62.4685 107.172 62.2819 105.977 62.3192C104.82 62.3565 103.738 62.5805 102.842 62.9537C101.909 63.3643 101.125 63.8869 100.453 64.5961C100.192 64.8947 99.9306 65.1933 99.744 65.5292L99.1095 61.9833C98.7735 61.9459 98.4749 61.9459 98.2136 61.9833C97.6911 62.0579 97.2432 62.2445 96.7953 62.4685C96.3474 62.6925 95.9368 62.9911 95.5635 63.327C95.1902 63.6629 94.8916 64.0735 94.6303 64.5214C94.3691 64.9693 94.1824 65.4173 94.1078 65.9025H94.0331L93.5479 63.1777L90.0766 63.8122L90.0392 62.2072L86.1573 62.3192L86.1947 64.2975H86.12C85.5975 63.439 84.9629 62.8418 84.2164 62.5058C83.4699 62.1699 82.6114 62.0206 81.6409 62.0206C80.5958 62.0579 79.6999 62.2819 78.9161 62.6925C78.1322 63.103 77.4977 63.6629 76.9751 64.3721C76.4526 65.0813 76.0793 65.8652 75.818 66.761C75.5567 67.6568 75.4448 68.59 75.4821 69.5604C75.5194 70.5682 75.6687 71.5387 75.93 72.4345C76.1913 73.3304 76.6019 74.1142 77.1244 74.7861C77.647 75.458 78.3189 75.9805 79.14 76.3538C79.9612 76.727 80.9317 76.9137 82.0515 76.8763C82.9473 76.839 83.8058 76.6524 84.627 76.2418C85.4481 75.8312 86.0454 75.234 86.4559 74.4502H86.5306L86.5679 76.4284C86.6053 77.4736 86.3813 78.3694 85.8961 79.0786C85.3735 79.7878 84.5523 80.161 83.3952 80.1984C82.6487 80.1984 82.0142 80.0864 81.4543 79.7878C80.8944 79.4892 80.4838 78.9666 80.2972 78.2201L76.2286 78.3321C76.3033 79.1906 76.5645 79.8998 77.0125 80.497C77.4604 81.0942 77.9829 81.5794 78.6175 81.9154C79.252 82.2886 79.9612 82.5499 80.7077 82.6992C81.4543 82.8485 82.2008 82.9232 82.9473 82.9232C84.6643 82.8858 86.008 82.6246 87.0158 82.102C88.0236 81.6167 88.7702 81.0195 89.2927 80.3477C89.8153 79.6758 90.1512 78.9293 90.3005 78.1828C90.4498 77.3989 90.4872 76.727 90.4872 76.1298L90.2259 66.2384L92.4281 78.5187L96.4593 77.8095L95.2649 71.2028C95.1529 70.5309 95.1156 69.8964 95.1529 69.3365C95.1902 68.7393 95.3022 68.2167 95.5635 67.7315C95.7875 67.2462 96.1607 66.8356 96.6086 66.4997C97.0565 66.1638 97.6911 65.9398 98.4003 65.7905C98.6616 65.7532 98.8855 65.7159 99.1841 65.7159C99.3708 65.7159 99.5574 65.6785 99.7067 65.6785C99.4454 66.0891 99.2588 66.5744 99.0721 67.0596C98.7362 68.0301 98.5869 69.1125 98.6242 70.307C98.6616 71.5014 98.8855 72.5839 99.2588 73.517C99.6694 74.4502 100.192 75.2713 100.901 75.9432C101.573 76.6151 102.394 77.1003 103.365 77.4362C104.335 77.7722 105.38 77.9215 106.537 77.8842C107.694 77.8468 108.777 77.6602 109.71 77.2496C110.643 76.839 111.427 76.3165 112.099 75.6073C112.696 74.9354 113.181 74.1889 113.517 73.2557C113.592 73.6663 113.667 74.0396 113.779 74.4128C114.003 75.1593 114.338 75.7566 114.786 76.2791C115.234 76.7644 115.794 77.1376 116.541 77.3616C117.25 77.5855 118.183 77.6602 119.266 77.5855C120.124 77.5109 120.945 77.2496 121.729 76.8017C122.513 76.3538 123.147 75.6819 123.595 74.7861H123.67L123.819 76.839L127.403 76.5404L127.179 82.1766L131.247 82.3259L131.508 75.2713H131.583C132.068 76.0179 132.666 76.5777 133.449 76.9883C134.196 77.3989 135.054 77.6229 135.988 77.6602C137.07 77.6975 138.041 77.5109 138.862 77.1376C139.683 76.7644 140.392 76.2045 140.952 75.5326C141.512 74.8607 141.96 74.0396 142.258 73.1437C142.557 72.2479 142.744 71.2774 142.781 70.2696C142.594 69.3738 142.482 68.366 142.258 67.3582ZM86.008 71.2401C85.8961 71.7253 85.6721 72.1733 85.4108 72.5839C85.1495 72.9571 84.7763 73.293 84.3284 73.517C83.8805 73.741 83.3952 73.8903 82.798 73.8903C82.1635 73.8903 81.6409 73.7783 81.193 73.517C80.7451 73.2557 80.4091 72.9198 80.1479 72.5092C79.8866 72.0986 79.6999 71.6134 79.5506 71.0908C79.4387 70.5682 79.364 70.0457 79.364 69.4858C79.364 68.9259 79.4013 68.4033 79.5133 67.8808C79.6253 67.3582 79.8119 66.9103 80.0732 66.4997C80.3345 66.0891 80.6704 65.7905 81.081 65.5292C81.4916 65.3053 81.9768 65.156 82.5367 65.156C83.2086 65.1186 83.7685 65.2306 84.2164 65.4919C84.6643 65.7159 85.0376 66.0518 85.2988 66.4624C85.5601 66.873 85.7841 67.3582 85.8961 67.9181C86.008 68.478 86.0827 69.0379 86.12 69.6724C86.1947 70.2323 86.1573 70.7549 86.008 71.2401ZM109.561 71.8373C109.449 72.3972 109.262 72.9198 109.001 73.3677C108.74 73.8156 108.366 74.1889 107.918 74.4875C107.471 74.7861 106.873 74.9354 106.201 74.9354C105.53 74.9354 104.932 74.8234 104.447 74.5621C103.962 74.3009 103.589 73.9649 103.327 73.517C103.029 73.0691 102.842 72.5839 102.693 72.024C102.543 71.4641 102.506 70.8669 102.469 70.2696C102.469 69.6724 102.506 69.0752 102.581 68.5153C102.693 67.9181 102.879 67.4329 103.141 66.9849C103.402 66.537 103.775 66.1638 104.223 65.8652C104.671 65.5666 105.231 65.4173 105.94 65.4173C106.612 65.4173 107.209 65.5292 107.694 65.7905C108.18 66.0518 108.553 66.4251 108.852 66.8356C109.15 67.2836 109.337 67.7688 109.486 68.3287C109.598 68.8886 109.673 69.4858 109.71 70.083C109.71 70.7176 109.673 71.2774 109.561 71.8373ZM138.227 71.912C138.078 72.4719 137.891 72.9944 137.593 73.405C137.294 73.8156 136.921 74.1515 136.473 74.4128C136.025 74.6741 135.465 74.7861 134.793 74.7488C134.159 74.7114 133.599 74.5621 133.151 74.2635C132.703 73.9649 132.33 73.629 132.068 73.1811C131.807 72.7332 131.62 72.2479 131.508 71.6507C131.396 71.0908 131.359 70.4936 131.396 69.8964C131.434 69.2992 131.508 68.7019 131.62 68.1421C131.77 67.5822 131.956 67.0596 132.255 66.649C132.554 66.2011 132.927 65.8652 133.375 65.6039C133.823 65.3426 134.383 65.2306 135.054 65.2679C135.689 65.3053 136.249 65.4546 136.697 65.7532C137.145 66.0518 137.481 66.4251 137.779 66.873C138.041 67.3209 138.227 67.8434 138.339 68.4407C138.451 69.0005 138.488 69.5978 138.451 70.195C138.451 70.7549 138.376 71.3148 138.227 71.912Z" fill="white"/>
<path d="M107.881 72.5465L105.119 72.3972L105.268 69.1125L108.031 69.2245L107.881 72.5465Z" fill="#2E2B5B"/>
<path d="M136.398 72.136L134.532 72.0613L134.644 68.814L136.548 68.8886L136.398 72.136Z" fill="#2E2B5B"/>
</g>
<defs>
<clipPath id="clip0_330_638">
<rect width="225" height="88" fill="white" transform="translate(0.0686035)"/>
</clipPath>
</defs>
</svg>
