<svg width="154" height="48" viewBox="0 0 154 48" fill="none" xmlns="http://www.w3.org/2000/svg">
<path fill-rule="evenodd" clip-rule="evenodd" d="M20 44C31.0457 44 40 35.0457 40 24C40 12.9543 31.0457 4 20 4C8.95429 4 0 12.9543 0 24C0 35.0457 8.95429 44 20 44ZM26.2393 13.3168C26.543 12.238 25.4961 11.6001 24.54 12.2813L11.1931 21.7896C10.1562 22.5283 10.3193 24 11.4381 24H14.9527V23.9728L17 24L16.2212 25.9421L13.7607 34.6832C13.457 35.762 14.5038 36.3999 15.46 35.7187L28.8069 26.2105C29.8438 25.4718 29.6806 24 28.5619 24H23.2321L26.2393 13.3168Z" fill="white"/>
<path d="M76.261 12.536L72.293 35H66.821L68.453 25.688H59.941L58.309 35H52.837L56.805 12.536H62.277L60.709 21.368H69.221L70.789 12.536H76.261ZM83.7953 17.144L85.9713 28.312L92.0513 17.144H97.9713L82.1313 43.48H76.2433L81.9393 34.392L77.7153 17.144H83.7953ZM105.262 19.672C105.945 18.84 106.798 18.168 107.822 17.656C108.867 17.144 110.019 16.888 111.278 16.888C113.198 16.888 114.745 17.5173 115.918 18.776C117.113 20.0347 117.71 21.7413 117.71 23.896C117.71 24.5573 117.646 25.272 117.518 26.04C117.198 27.8747 116.569 29.496 115.63 30.904C114.691 32.2907 113.561 33.368 112.238 34.136C110.915 34.8827 109.518 35.256 108.046 35.256C106.809 35.256 105.763 35 104.91 34.488C104.057 33.976 103.427 33.3147 103.022 32.504L101.07 43.512H95.598L100.238 17.144H105.71L105.262 19.672ZM111.982 26.04C112.046 25.6773 112.078 25.3467 112.078 25.048C112.078 23.9813 111.769 23.1493 111.15 22.552C110.553 21.9547 109.785 21.656 108.846 21.656C107.758 21.656 106.766 22.0507 105.87 22.84C104.974 23.6293 104.398 24.7067 104.142 26.072C104.078 26.456 104.046 26.808 104.046 27.128C104.046 28.1733 104.345 28.9947 104.942 29.592C105.539 30.1893 106.307 30.488 107.246 30.488C108.334 30.488 109.326 30.0933 110.222 29.304C111.139 28.4933 111.726 27.4053 111.982 26.04ZM130.277 16.888C132.581 16.888 134.405 17.5173 135.749 18.776C137.114 20.0133 137.797 21.7093 137.797 23.864C137.797 24.568 137.743 25.1973 137.637 25.752C137.551 26.2427 137.423 26.7653 137.253 27.32H124.869C124.847 27.448 124.837 27.6507 124.837 27.928C124.837 28.8667 125.093 29.5813 125.605 30.072C126.117 30.5627 126.799 30.808 127.653 30.808C129.018 30.808 130.063 30.232 130.789 29.08H136.613C135.845 30.8933 134.597 32.376 132.869 33.528C131.141 34.68 129.199 35.256 127.045 35.256C124.741 35.256 122.895 34.616 121.509 33.336C120.143 32.056 119.461 30.3173 119.461 28.12C119.461 27.4587 119.525 26.776 119.653 26.072C119.973 24.216 120.634 22.5947 121.637 21.208C122.639 19.8213 123.887 18.7547 125.381 18.008C126.874 17.2613 128.506 16.888 130.277 16.888ZM132.261 24.536C132.303 24.2373 132.325 24.0347 132.325 23.928C132.325 23.0747 132.058 22.424 131.525 21.976C130.991 21.5067 130.287 21.272 129.413 21.272C128.474 21.272 127.642 21.56 126.917 22.136C126.213 22.6907 125.701 23.4907 125.381 24.536H132.261ZM147.212 20.376C148.044 19.3093 148.993 18.4773 150.059 17.88C151.147 17.2613 152.278 16.952 153.451 16.952L152.427 22.744H150.924C149.558 22.744 148.481 23.0427 147.691 23.64C146.902 24.216 146.379 25.24 146.123 26.712L144.651 35H139.179L142.315 17.144H147.787L147.212 20.376Z" fill="white"/>
</svg>
