<svg width="296" height="120" viewBox="0 0 296 120" fill="none" xmlns="http://www.w3.org/2000/svg">
<path d="M100.067 94.1271H97.8931L97.6568 93.8916L97.4205 92.6906H97.1842C96.7116 93.1616 95.5064 94.3626 92.8599 94.3626C88.0393 94.3626 84.9202 90.7594 84.9202 85.7196C84.9202 80.6799 88.0393 77.0767 93.0962 77.0767C97.9167 77.0767 99.8307 79.7143 100.303 82.1164L100.067 82.3519H97.1842L96.9479 82.1164C96.4753 81.1509 95.7427 79.9498 93.0962 79.9498C89.977 79.9498 88.2756 82.3519 88.2756 85.6961C88.2756 89.0402 89.9534 91.4424 93.0962 91.4424C95.7427 91.4424 96.9479 90.0058 96.9479 88.0747L96.7116 87.8392H92.6236L92.3873 87.6037V85.2015L92.6236 84.966H100.091L100.327 85.2015V93.8445L100.067 94.1271Z" fill="white"/>
<path d="M125.824 94.1272H123.177L122.941 93.8917L122.705 93.4207H122.468C122.468 93.4207 121.5 94.3862 119.822 94.3862C117.175 94.3862 115.498 92.9497 115.498 90.5475C115.498 86.9443 118.877 86.4733 120.791 86.4733C121.76 86.4733 122.468 86.7088 122.468 86.7088L122.705 86.4733V86.2378C122.705 85.0367 122.468 84.8012 121.027 84.8012C120.294 84.8012 119.586 84.8012 119.349 85.5313L119.113 85.7668H116.23L115.994 85.5313C115.994 84.0947 117.199 81.9281 121.051 81.9281C124.902 81.9281 126.107 83.8357 126.107 87.4389V93.9152L125.824 94.1272ZM122.445 89.0874C122.445 89.0874 121.972 88.8519 121.003 88.8519C119.562 88.8519 118.829 89.3229 118.829 90.2885C118.829 91.0185 119.302 91.4895 120.507 91.4895C121.712 91.4895 122.681 90.7595 122.681 89.8175V89.3465L122.445 89.0874Z" fill="white"/>
<path d="M159.733 94.1272H156.85L156.614 93.8917V86.9443C156.614 85.7432 156.141 84.7777 154.7 84.7777C153.258 84.7777 152.526 85.7432 152.526 87.4153V93.8917L152.289 94.1272H149.407L149.17 93.8917V86.9443C149.17 85.7432 148.698 84.7777 147.256 84.7777C145.815 84.7777 145.082 85.7432 145.082 87.4153V93.8917L144.846 94.1272H141.963L141.727 93.8917V82.3755L141.963 82.14H144.586L144.822 82.3755L145.059 83.1056H145.295C145.295 83.1056 146.027 81.9045 148.178 81.9045C150.092 81.9045 151.061 82.8701 151.557 83.5766H151.793C151.793 83.5766 152.762 81.9045 155.409 81.9045C158.291 81.9045 159.969 83.5766 159.969 86.7088V93.8917L159.733 94.1272Z" fill="white"/>
<path d="M186.435 89.0874L186.199 89.3229H178.732L178.495 89.5584C178.495 90.0294 178.968 91.466 180.906 91.466C181.638 91.466 182.347 91.2305 182.583 90.7359L182.82 90.5004H185.702L185.939 90.7359C185.702 92.1725 184.497 94.3391 180.882 94.3391C176.794 94.3391 174.856 91.466 174.856 88.0983C174.856 84.7306 176.77 81.8574 180.622 81.8574C184.474 81.8574 186.388 84.7306 186.388 88.0983V89.0874H186.435ZM182.843 86.6852C182.843 86.4497 182.607 84.7777 180.669 84.7777C178.755 84.7777 178.495 86.4497 178.495 86.6852L178.732 86.9208H182.583L182.843 86.6852Z" fill="white"/>
<path d="M206.166 94.3627C202.787 94.3627 200.873 92.6906 200.873 90.2885L201.109 90.053H203.992L204.228 90.2885C204.228 91.254 204.961 91.4895 206.142 91.4895C207.324 91.4895 208.056 91.254 208.056 90.524C208.056 89.5584 207.088 89.5584 205.646 89.3229C204.205 89.0874 201.085 88.3573 201.085 85.4842C201.085 83.5766 202.527 81.881 206.142 81.881C209.025 81.881 211.199 83.082 211.199 85.4842L210.963 85.7197H208.08L207.844 85.4842C207.844 85.0132 207.371 84.7541 206.166 84.7541C204.961 84.7541 204.488 84.9896 204.488 85.7197C204.488 86.6853 205.93 86.6853 207.371 86.9208C208.812 87.1563 211.459 87.6508 211.459 90.524C211.459 92.4551 210.018 94.3627 206.166 94.3627Z" fill="white"/>
<path d="M109.377 28.6571L123.201 30.7767V26.5376L109.377 28.6571Z" fill="white"/>
<path d="M109.377 32.8963L123.201 35.0158V30.7767L109.377 32.8963Z" fill="white"/>
<path d="M109.377 37.1353L123.201 39.2548V35.0157L109.377 37.1353Z" fill="white"/>
<path d="M109.377 41.3743L123.201 43.4938V39.2548L109.377 41.3743Z" fill="white"/>
<path d="M109.377 45.6134L123.201 47.733V43.4939L109.377 45.6134Z" fill="white"/>
<path d="M109.377 49.8526L123.201 51.9721V47.733L109.377 49.8526Z" fill="white"/>
<path d="M109.377 54.0916L123.201 56.2111V51.972L109.377 54.0916Z" fill="white"/>
<mask id="mask0_328_629" style="mask-type:luminance" maskUnits="userSpaceOnUse" x="109" y="26" width="33" height="43">
<path d="M109.377 26.5376V68.9283H141.278V58.3306H123.201V26.5376H109.377Z" fill="white"/>
</mask>
<g mask="url(#mask0_328_629)">
<path d="M109.377 58.3306L141.278 60.4501V56.2111L109.377 58.3306Z" fill="white"/>
</g>
<path d="M109.377 62.5697L141.278 64.6893V60.4502L109.377 62.5697Z" fill="white"/>
<path d="M109.377 66.8087L141.278 68.9283V64.6892L109.377 66.8087Z" fill="white"/>
<path d="M150.375 28.6571L163.608 30.7767V26.5376L150.375 28.6571Z" fill="white"/>
<path d="M150.375 32.8963L163.608 35.0158V30.7767L150.375 32.8963Z" fill="white"/>
<path d="M150.375 37.1353L163.608 39.2548V35.0157L150.375 37.1353Z" fill="white"/>
<path d="M150.375 41.3743L163.608 43.4938V39.2548L150.375 41.3743Z" fill="white"/>
<path d="M150.375 45.6134L163.608 47.733V43.4939L150.375 45.6134Z" fill="white"/>
<path d="M150.375 49.8526L163.608 51.9721V47.733L150.375 49.8526Z" fill="white"/>
<path d="M150.375 54.0916L163.608 56.2111V51.972L150.375 54.0916Z" fill="white"/>
<path d="M150.375 58.3306L163.608 60.4501V56.2111L150.375 58.3306Z" fill="white"/>
<path d="M150.375 62.5697L163.608 64.6893V60.4502L150.375 62.5697Z" fill="white"/>
<path d="M150.375 66.8087L163.608 68.9283V64.6892L150.375 66.8087Z" fill="white"/>
<path d="M256.71 28.6571L269.943 30.7767V26.5376L256.71 28.6571Z" fill="white"/>
<path d="M256.71 32.8963L269.943 35.0158V30.7767L256.71 32.8963Z" fill="white"/>
<path d="M256.71 37.1353L269.943 39.2548V35.0157L256.71 37.1353Z" fill="white"/>
<path d="M256.71 41.3743L269.943 43.4938V39.2548L256.71 41.3743Z" fill="white"/>
<path d="M256.71 45.6134L269.943 47.733V43.4939L256.71 45.6134Z" fill="white"/>
<path d="M256.71 49.8526L269.943 51.9721V47.733L256.71 49.8526Z" fill="white"/>
<path d="M256.71 54.0916L269.943 56.2111V51.972L256.71 54.0916Z" fill="white"/>
<path d="M256.71 58.3306L269.943 60.4501V56.2111L256.71 58.3306Z" fill="white"/>
<path d="M256.71 62.5697L269.943 64.6893V60.4502L256.71 62.5697Z" fill="white"/>
<path d="M256.71 66.8087L269.943 68.9283V64.6892L256.71 66.8087Z" fill="white"/>
<mask id="mask1_328_629" style="mask-type:luminance" maskUnits="userSpaceOnUse" x="26" y="26" width="37" height="43">
<path d="M47.7028 26.5376L39.196 39.2548V26.5376H26.4358V68.9283H39.196V56.2111L47.7028 68.9283H62.5898L47.7028 47.7329L62.5898 26.5376H47.7028Z" fill="white"/>
</mask>
<g mask="url(#mask1_328_629)">
<path d="M26.4358 28.6571L59.6124 30.7767L62.5898 26.5376L26.4358 28.6571Z" fill="white"/>
<path d="M26.4358 32.8963L56.635 35.0158L59.6124 30.7767L26.4358 32.8963Z" fill="white"/>
<path d="M26.4358 37.1353L53.6576 39.2548L56.635 35.0157L26.4358 37.1353Z" fill="white"/>
<path d="M26.4358 41.3743L50.6802 43.4938L53.6576 39.2548L26.4358 41.3743Z" fill="white"/>
<path d="M26.4358 45.6134L47.7028 47.733L50.6802 43.4939L26.4358 45.6134Z" fill="white"/>
<path d="M26.4358 49.8526L50.6802 51.9721L47.7028 47.733L26.4358 49.8526Z" fill="white"/>
<path d="M26.4358 54.0916L53.6576 56.2111L50.6802 51.972L26.4358 54.0916Z" fill="white"/>
<path d="M26.4358 58.3306L56.635 60.4501L53.6576 56.2111L26.4358 58.3306Z" fill="white"/>
<path d="M26.4358 62.5697L59.6124 64.6893L56.635 60.4502L26.4358 62.5697Z" fill="white"/>
<path d="M26.4358 66.8087L62.5898 68.9283L59.6124 64.6892L26.4358 66.8087Z" fill="white"/>
</g>
<mask id="mask2_328_629" style="mask-type:luminance" maskUnits="userSpaceOnUse" x="60" y="26" width="43" height="43">
<path d="M102.997 47.7329C102.997 59.4375 95.0575 68.9283 81.7302 68.9283C69.986 68.9283 60.4631 59.4375 60.4631 47.7329C60.4631 36.0284 69.986 26.5376 81.7302 26.5376C93.4743 26.5376 102.997 36.0284 102.997 47.7329Z" fill="white"/>
</mask>
<g mask="url(#mask2_328_629)">
<path d="M72.4436 28.6571L94.4904 30.7767L92.3637 28.6571L89.1737 27.4796L72.4436 28.6571Z" fill="white"/>
<path d="M66.5361 32.8963L98.7439 35.0158L97.6805 32.8963L94.4905 30.7767L66.5361 32.8963Z" fill="white"/>
<path d="M63.2986 37.1117L101.248 39.2548L100.87 37.1353L98.7436 35.0157L63.2986 37.1117Z" fill="white"/>
<path d="M61.4319 41.3744L102.572 43.4939L102.997 41.3744L101.249 39.2549L61.4319 41.3744Z" fill="white"/>
<path d="M60.5576 45.6134L102.997 47.733L105.148 45.6841L102.572 43.4939L60.5576 45.6134Z" fill="white"/>
<path d="M60.5576 49.8526L102.643 51.9721L105.148 50.1352L102.997 47.733L60.5576 49.8526Z" fill="white"/>
<path d="M61.4319 54.0916L101.461 56.2111L102.997 54.1622L102.643 51.972L61.4319 54.0916Z" fill="white"/>
<path d="M63.2986 58.3306L99.2163 60.4501L101.934 58.3306L101.461 56.2111L63.2986 58.3306Z" fill="white"/>
<path d="M66.5361 62.5697L95.1757 64.6893L100.114 62.1458L99.2165 60.4502L66.5361 62.5697Z" fill="white"/>
<path d="M72.4436 66.8089L88.6302 67.9628L94.7267 66.8089L95.1757 64.6893L72.4436 66.8089Z" fill="white"/>
</g>
<mask id="mask3_328_629" style="mask-type:luminance" maskUnits="userSpaceOnUse" x="172" y="26" width="33" height="43">
<path d="M193.288 47.6152H193.429C199.36 47.6152 204.016 43.0229 204.016 37.1353C204.016 31.2241 199.313 26.5376 193.382 26.5376H172.115V68.9283H193.429C199.36 68.9283 204.016 64.1946 204.016 58.307C204.016 52.3959 199.219 47.6152 193.288 47.6152Z" fill="white"/>
</mask>
<g mask="url(#mask3_328_629)">
<path d="M172.115 28.6571L201.912 30.7766L201.889 28.6571L196.619 27.0085L172.115 28.6571Z" fill="white"/>
<path d="M172.115 32.8963L203.803 35.0158L204.016 32.8963L201.912 30.7767L172.115 32.8963Z" fill="white"/>
<path d="M172.115 37.1353L203.803 39.2548L205.197 37.1353L203.803 35.0157L172.115 37.1353Z" fill="white"/>
<path d="M172.115 41.3743L201.912 43.4938L204.016 41.3743L203.803 39.2548L172.115 41.3743Z" fill="white"/>
<path d="M172.115 45.6134L193.335 47.6152L200.825 47.733L201.912 43.4939L172.115 45.6134Z" fill="white"/>
<path d="M172.115 49.8525L201.936 51.9721L200.825 47.733L193.335 47.6152L172.115 49.8525Z" fill="white"/>
<path d="M172.115 54.0915L203.803 56.211L204.016 54.0915L201.936 51.9719L172.115 54.0915Z" fill="white"/>
<path d="M172.115 58.3306L203.803 60.4501L205.079 58.3306L203.803 56.2111L172.115 58.3306Z" fill="white"/>
<path d="M172.115 62.5697L201.936 64.6893L204.016 62.5697L203.803 60.4502L172.115 62.5697Z" fill="white"/>
<path d="M172.115 66.8087L196.667 68.4337L201.889 66.8087L201.936 64.6892L172.115 66.8087Z" fill="white"/>
</g>
<mask id="mask4_328_629" style="mask-type:luminance" maskUnits="userSpaceOnUse" x="211" y="26" width="39" height="43">
<path d="M211.459 26.5376V68.9283H224.219V51.972L234.853 68.9283H249.74L234.853 47.6152C240.784 47.6152 245.486 43.1171 245.486 37.2295C245.486 31.3183 240.784 26.5376 234.853 26.5376H211.459Z" fill="white"/>
</mask>
<g mask="url(#mask4_328_629)">
<path d="M211.459 28.6572L243.36 30.7767V28.6572L237.996 26.9851L211.459 28.6572Z" fill="white"/>
<path d="M211.459 32.8963L245.274 35.0158L245.486 32.8963L243.336 30.7767L211.459 32.8963Z" fill="white"/>
<path d="M211.459 37.1353L245.297 39.2548L246.55 37.1353L245.274 35.0157L211.459 37.1353Z" fill="white"/>
<path d="M211.459 41.3743L243.407 43.4938L245.392 41.3743L245.297 39.2548L211.459 41.3743Z" fill="white"/>
<path d="M211.459 45.6134L237.736 47.2384L243.36 45.6134L243.407 43.4939L211.459 45.6134Z" fill="white"/>
<path d="M211.459 49.8525L237.901 51.9721L234.853 47.6152L211.459 49.8525Z" fill="white"/>
<path d="M211.459 54.0916L240.855 56.2111L237.901 51.972L211.459 54.0916Z" fill="white"/>
<path d="M211.459 58.3306L243.809 60.4501L240.855 56.2111L211.459 58.3306Z" fill="white"/>
<path d="M211.459 62.5697L246.786 64.6893L243.809 60.4502L211.459 62.5697Z" fill="white"/>
<path d="M211.459 66.8087L249.74 68.9283L246.786 64.6892L211.459 66.8087Z" fill="white"/>
</g>
</svg>
