<svg width="322" height="52" viewBox="0 0 322 52" fill="none" xmlns="http://www.w3.org/2000/svg">
<g clip-path="url(#clip0_328_616)">
<path d="M31.0643 1.73328C14.0845 1.73328 0.320801 15.5643 0.320801 32.6253V45.8638C0.320801 48.2989 2.28499 50.2718 4.70965 50.2718C7.13432 50.2718 9.11289 48.2989 9.11289 45.8638V32.6253C9.11289 30.1828 11.0699 28.2101 13.5017 28.2101C15.9264 28.2101 17.8905 30.1828 17.8905 32.6253V45.8638C17.8905 48.2989 19.8549 50.2718 22.2794 50.2718C24.7113 50.2718 26.6754 48.2989 26.6754 45.8638V32.6253C26.6754 30.1828 28.6397 28.2101 31.0643 28.2101C33.4961 28.2101 35.4675 30.1828 35.4675 32.6253V45.8638C35.4675 48.2989 37.4319 50.2718 39.8564 50.2718C42.281 50.2718 44.2453 48.2989 44.2453 45.8638V32.6253C44.2453 30.1828 46.2095 28.2101 48.6486 28.2101C51.0731 28.2101 53.0373 30.1828 53.0373 32.6253V45.8638C53.0373 48.2989 55.0016 50.2718 57.4334 50.2718C59.858 50.2718 61.8223 48.2989 61.8223 45.8638V32.6253C61.8223 15.5643 48.0514 1.73328 31.0643 1.73328Z" fill="white"/>
<path d="M68.7256 1.73804H76.5286V22.3472L97.3517 1.73804H107.727L89.1584 19.7782L108.768 50.2564H98.3922L83.1975 25.5691L76.5286 32.0493V50.2637H68.7256V1.73804Z" fill="white"/>
<path d="M113.009 1.73865H120.725V10.1202C121.354 8.4874 122.907 6.50631 125.371 4.16239C127.835 1.82573 130.682 0.650146 133.897 0.650146C134.049 0.650146 134.301 0.66466 134.663 0.693688C135.024 0.722714 135.638 0.780769 136.512 0.875105V9.48882C136.028 9.39449 135.588 9.33642 135.183 9.30741C134.778 9.27837 134.33 9.26387 133.854 9.26387C129.764 9.26387 126.621 10.5846 124.425 13.226C122.228 15.8675 121.13 18.9081 121.13 22.355V50.2643H113.009V1.73865Z" fill="white"/>
<path d="M166.757 20.8963C168.621 20.6568 169.871 19.8731 170.5 18.5451C170.861 17.8195 171.042 16.7745 171.042 15.4102C171.042 12.6236 170.059 10.599 168.094 9.33636C166.128 8.08094 163.318 7.44961 159.655 7.44961C155.421 7.44961 152.422 8.60342 150.652 10.9111C149.662 12.1882 149.019 14.0822 148.716 16.6003H141.136C141.288 10.6063 143.217 6.43367 146.924 4.08249C150.638 1.73857 154.937 0.562988 159.835 0.562988C165.514 0.562988 170.124 1.6515 173.664 3.82126C177.183 5.99827 178.938 9.37988 178.938 13.9734V41.9262C178.938 42.7753 179.113 43.4501 179.46 43.9654C179.798 44.4806 180.528 44.7345 181.648 44.7345C182.01 44.7345 182.414 44.7128 182.87 44.6693C183.317 44.6257 183.802 44.5532 184.314 44.466V50.4892C183.049 50.852 182.09 51.0769 181.432 51.1712C180.766 51.2584 179.87 51.3092 178.723 51.3092C175.925 51.3092 173.896 50.315 172.631 48.3194C171.974 47.26 171.504 45.765 171.237 43.8347C169.582 46.0118 167.212 47.8985 164.113 49.4949C161.013 51.0988 157.603 51.897 153.874 51.897C149.395 51.897 145.732 50.5327 142.892 47.8042C140.053 45.0756 138.629 41.6577 138.629 37.5576C138.629 33.0659 140.031 29.5826 142.827 27.1081C145.623 24.6336 149.294 23.1096 153.831 22.5362L166.757 20.8963ZM149.662 42.9277C151.375 44.2847 153.405 44.9595 155.753 44.9595C158.607 44.9595 161.374 44.2993 164.055 42.9712C168.563 40.7725 170.818 37.1659 170.818 32.1587V25.5987C169.828 26.2372 168.549 26.7669 166.988 27.1878C165.428 27.6088 163.896 27.9135 162.4 28.095L157.494 28.7263C154.554 29.1182 152.343 29.7349 150.862 30.5768C148.347 31.9917 147.097 34.256 147.097 37.3545C147.09 39.7201 147.95 41.5707 149.662 42.9277Z" fill="white"/>
<path d="M197.399 1.73865V22.3477L218.223 1.73865H228.59L210.022 19.7789L229.631 50.257H219.255L204.061 25.5696L197.392 32.0499V50.2643H189.588V1.73865H197.399Z" fill="white"/>
<path d="M262.75 3.07388C265.952 4.69212 268.387 6.78206 270.056 9.35094C271.668 11.7965 272.743 14.6483 273.285 17.9139C273.763 20.149 274.001 23.712 274.001 28.603H238.865C239.017 33.5376 240.165 37.4997 242.312 40.4822C244.457 43.4647 247.788 44.9596 252.289 44.9596C256.494 44.9596 259.855 43.5518 262.36 40.729C263.764 39.0889 264.759 37.1949 265.344 35.0397H273.33C273.119 36.8249 272.418 38.8059 271.233 40.9975C270.049 43.189 268.72 44.9741 267.26 46.3674C264.811 48.784 261.782 50.4166 258.17 51.2585C256.234 51.7447 254.037 51.9841 251.588 51.9841C245.613 51.9841 240.548 49.7853 236.394 45.395C232.24 40.9975 230.166 34.8511 230.166 26.9339C230.166 19.1402 232.254 12.8124 236.444 7.95039C240.627 3.08839 246.096 0.657397 252.853 0.657397C256.248 0.650141 259.551 1.46289 262.75 3.07388ZM265.655 22.13C265.331 18.5959 264.564 15.7731 263.372 13.6614C261.17 9.73555 257.483 7.76898 252.325 7.76898C248.626 7.76898 245.527 9.11873 243.026 11.8255C240.519 14.5322 239.197 17.9646 239.045 22.13H265.655Z" fill="white"/>
<path d="M288.848 1.73865V8.62527C291.131 5.78789 293.552 3.74876 296.11 2.50787C298.668 1.26697 301.507 0.650146 304.636 0.650146C311.492 0.650146 316.124 3.05212 318.53 7.85607C319.852 10.483 320.516 14.242 320.516 19.1402V50.2643H312.258V19.6845C312.258 16.7238 311.825 14.3363 310.95 12.5294C309.506 9.51059 306.89 8.0012 303.103 8.0012C301.182 8.0012 299.6 8.19712 298.364 8.58899C296.138 9.2566 294.188 10.5846 292.496 12.5729C291.147 14.1767 290.265 15.8239 289.859 17.5365C289.455 19.249 289.253 21.68 289.253 24.8514V50.2643H281.132V1.73865H288.848Z" fill="white"/>
</g>
<defs>
<clipPath id="clip0_328_616">
<rect width="321" height="52" fill="white" transform="translate(0.320801)"/>
</clipPath>
</defs>
</svg>
