<svg width="119" height="54" viewBox="0 0 119 54" fill="none" xmlns="http://www.w3.org/2000/svg">
<g clip-path="url(#clip0_328_624)">
<path d="M117.43 19.6965C116.087 14.6475 113.751 10.4706 109.68 6.561L109.602 6.4854L83.8809 25.4097L90.1564 34.3845L106.309 22.5072C106.518 22.9338 106.604 23.463 106.628 23.5845C107.795 29.592 105.47 35.8155 100.615 39.3876C98.9977 40.5876 97.1562 41.4467 95.201 41.9134C93.2458 42.3801 91.2171 42.4449 89.2365 42.1038C87.246 41.7653 85.3428 41.0295 83.6388 39.9399C81.9348 38.8503 80.4643 37.4287 79.3138 35.7588C74.4168 28.7253 76.0017 18.9108 82.8457 13.8753C85.5577 11.8654 88.8638 10.8351 92.2294 10.9512V0H28.3056V10.9728H38.8773L29.4293 35.8398L15.3229 0H0.320801V53.0496H11.2438V18.3303L24.7173 53.0496H34.0393L47.5128 17.8821V53.0496H58.8005V10.9728H69.8898C69.8174 11.0808 69.4366 11.6694 69.3186 11.8584C63.6198 21.0114 63.5527 33.1938 70.0695 42.552C74.2129 48.4947 80.357 52.4259 87.378 53.622C90.8326 54.2217 94.372 54.1113 97.783 53.2974C101.194 52.4835 104.406 50.983 107.226 48.8862C116.382 42.1227 120.214 30.1617 117.43 19.6965Z" fill="white"/>
</g>
<defs>
<clipPath id="clip0_328_624">
<rect width="118" height="54" fill="white" transform="translate(0.320801)"/>
</clipPath>
</defs>
</svg>
