<svg width="26" height="23" viewBox="0 0 26 23" fill="none" xmlns="http://www.w3.org/2000/svg">
<g clip-path="url(#clip0_348_691)">
<path d="M5.78067 1.91069C8.6129 4.07708 11.6593 8.4696 12.7778 10.8269C13.8963 8.46977 16.9426 4.07703 19.7749 1.91069C21.8185 0.347519 25.1296 -0.861977 25.1296 2.9867C25.1296 3.75534 24.6971 9.44363 24.4434 10.3671C23.5616 13.5777 20.3484 14.3966 17.4902 13.901C22.4863 14.7673 23.7573 17.6371 21.0125 20.5068C15.7996 25.9569 13.52 19.1393 12.9356 17.3924C12.8285 17.0721 12.7784 16.9223 12.7777 17.0497C12.777 16.9223 12.7269 17.0721 12.6198 17.3924C12.0357 19.1393 9.75616 25.9571 4.54295 20.5068C1.79811 17.6371 3.06904 14.7672 8.06523 13.901C5.20693 14.3966 1.99366 13.5777 1.11199 10.3671C0.858301 9.44354 0.425781 3.75525 0.425781 2.9867C0.425781 -0.861977 3.73701 0.347519 5.78052 1.91069H5.78067Z" fill="white"/>
</g>
<defs>
<clipPath id="clip0_348_691">
<rect width="25.5556" height="23" fill="white"/>
</clipPath>
</defs>
</svg>
