<svg width="24" height="24" viewBox="0 0 24 24" fill="none" xmlns="http://www.w3.org/2000/svg">
<path d="M8.03442 18.7863C8.03442 18.88 7.94067 18.9269 7.80005 18.9269C7.65942 18.9738 7.56567 18.88 7.56567 18.7863C7.56567 18.6925 7.65942 18.5988 7.80005 18.5988C7.94067 18.5988 8.03442 18.6925 8.03442 18.7863ZM6.5813 18.5519C6.62817 18.4581 6.7688 18.4113 6.90942 18.4581C7.05005 18.505 7.09692 18.5988 7.09692 18.6925C7.05005 18.7863 6.90942 18.8331 6.81567 18.7863C6.67505 18.7863 6.5813 18.6456 6.5813 18.5519ZM8.69067 18.505C8.78442 18.4581 8.92505 18.5519 8.92505 18.6456C8.97192 18.7394 8.87817 18.7863 8.73755 18.8331C8.59692 18.88 8.4563 18.8331 8.4563 18.7394C8.4563 18.5988 8.55005 18.505 8.69067 18.505ZM11.7375 0.505005C18.2532 0.505005 23.55 5.47375 23.55 11.9425C23.55 17.1456 20.3625 21.5988 15.675 23.1456C15.0657 23.2863 14.8313 22.9113 14.8313 22.5831C14.8313 22.2081 14.8782 20.2394 14.8782 18.6925C14.8782 17.5675 14.5032 16.8644 14.0813 16.4894C16.7063 16.2081 19.4719 15.8331 19.4719 11.3331C19.4719 10.0206 19.0032 9.41125 18.2532 8.5675C18.3469 8.23938 18.7688 7.02063 18.1125 5.38C17.1282 5.05188 14.8782 6.64563 14.8782 6.64563C13.9407 6.36438 12.9563 6.27063 11.925 6.27063C10.9407 6.27063 9.9563 6.36438 9.0188 6.64563C9.0188 6.64563 6.72192 5.09875 5.78442 5.38C5.12817 7.02063 5.50317 8.23938 5.6438 8.5675C4.8938 9.41125 4.5188 10.0206 4.5188 11.3331C4.5188 15.8331 7.19067 16.2081 9.81567 16.4894C9.44067 16.8175 9.15942 17.3331 9.06567 18.0831C8.36255 18.4113 6.67505 18.9269 5.6438 17.0988C4.98755 15.9738 3.81567 15.88 3.81567 15.88C2.69067 15.88 3.7688 16.63 3.7688 16.63C4.5188 16.9581 5.03442 18.3175 5.03442 18.3175C5.73755 20.4269 9.0188 19.7238 9.0188 19.7238C9.0188 20.7081 9.0188 22.3019 9.0188 22.63C9.0188 22.9113 8.8313 23.2863 8.22192 23.1925C3.53442 21.5988 0.300049 17.1456 0.300049 11.9425C0.300049 5.47375 5.2688 0.505005 11.7375 0.505005ZM4.84692 16.6769C4.8938 16.63 4.98755 16.6769 5.0813 16.7238C5.17505 16.8175 5.17505 16.9581 5.12817 17.005C5.03442 17.0519 4.94067 17.005 4.84692 16.9581C4.80005 16.8644 4.75317 16.7238 4.84692 16.6769ZM4.3313 16.3019C4.37817 16.255 4.42505 16.255 4.5188 16.3019C4.61255 16.3488 4.65942 16.3956 4.65942 16.4425C4.61255 16.5363 4.5188 16.5363 4.42505 16.4894C4.3313 16.4425 4.28442 16.3956 4.3313 16.3019ZM5.8313 17.9894C5.92505 17.8956 6.06567 17.9425 6.15942 18.0363C6.25317 18.13 6.25317 18.2706 6.2063 18.3175C6.15942 18.4113 6.0188 18.3644 5.92505 18.2706C5.78442 18.1769 5.78442 18.0363 5.8313 17.9894ZM5.31567 17.2863C5.40942 17.2394 5.50317 17.2863 5.59692 17.38C5.6438 17.4738 5.6438 17.6144 5.59692 17.6613C5.50317 17.7081 5.40942 17.6613 5.31567 17.5675C5.22192 17.4738 5.22192 17.3331 5.31567 17.2863Z" fill="white"/>
</svg>
