<svg xmlns="http://www.w3.org/2000/svg" width="21" height="22" fill="none" viewBox="0 0 21 22"><path fill="#fff" d="M20.137 7.5675C20.137 7.5675 20.137 10.8956 19.7151 13.2394C19.387 14.7394 17.0901 16.3331 14.4651 16.6613C13.5276 16.755 10.1057 17.3175 6.12134 16.3331C6.12134 16.3331 6.12134 16.3331 6.12134 16.38C6.12134 16.5675 6.12134 16.8019 6.12134 16.9894C6.44946 19.3331 8.46509 19.4738 10.3401 19.5206C12.262 19.6144 13.9495 19.0519 13.9495 19.0519L14.0432 20.7863C14.0432 20.7863 12.6838 21.4894 10.3401 21.63C9.02759 21.7238 7.38696 21.5831 5.46509 21.1144C0.215088 19.7081 0.543213 12.9581 0.543213 7.5675C0.543213 2.97375 3.49634 1.66125 3.49634 1.66125C6.40259 0.348755 14.1838 0.30188 17.137 1.66125C17.137 1.66125 20.137 2.97375 20.137 7.5675ZM16.5745 13.4269C16.5745 7.70813 16.8557 6.48938 15.7307 5.22375C14.512 3.86438 11.9807 3.77063 10.8557 5.505L10.3401 6.39563L9.77759 5.505C8.65259 3.77063 6.12134 3.86438 4.90259 5.22375C3.77759 6.48938 4.05884 7.70813 4.05884 13.4269H6.21509V8.08313C6.21509 5.73938 9.21509 5.64563 9.21509 8.36438V11.3175H11.4182V8.41125C11.4182 5.64563 14.4182 5.73938 14.4182 8.08313V13.4269H16.5745Z"/></svg>