<svg xmlns="http://www.w3.org/2000/svg" width="25" height="25" fill="none" viewBox="0 0 25 25"><path fill="#fff" fill-rule="evenodd" d="M20.6071 4.08156C20.9701 3.99552 21.2232 3.91092 21.4306 3.82208C21.7213 3.69756 21.9622 3.54839 22.3429 3.29717C22.6628 3.08604 23.0728 3.06765 23.4103 3.2493C23.7478 3.43094 23.9583 3.78328 23.9583 4.16657C23.9583 5.29254 23.818 6.21539 23.4932 7.02755C23.2199 7.71068 22.8359 8.26554 22.3767 8.77055C22.1827 12.2738 21.1687 15.0249 19.6183 17.1092C18.0115 19.2695 15.8735 20.653 13.6199 21.4278C11.3728 22.2002 8.99858 22.3728 6.87157 22.1112C4.75851 21.8514 2.80526 21.1518 1.44381 20.093C1.07098 19.803 0.939918 19.2984 1.1245 18.8636C1.30908 18.4288 1.76309 18.1727 2.23068 18.2395C3.57023 18.4309 4.8597 18.1263 5.92001 17.6909C5.71128 17.5773 5.51448 17.4544 5.33155 17.3278C4.36537 16.6589 3.58584 15.7509 3.23498 15.0491C3.08978 14.7588 3.08828 14.4172 3.23093 14.1257C3.30451 13.9752 3.41211 13.8469 3.54276 13.7491C2.13206 12.5848 1.5625 10.9745 1.5625 9.89574C1.5625 9.57497 1.71029 9.27208 1.96312 9.07468C2.06944 8.99168 2.18933 8.93122 2.31572 8.8948C2.21015 8.58569 2.12824 8.27339 2.0658 7.97105C1.78896 6.63057 1.81353 5.11759 2.11444 3.91393C2.2174 3.50204 2.56005 3.19386 2.98052 3.13497C3.40098 3.07608 3.81511 3.27827 4.02728 3.64603C5.14969 5.59153 7.21997 6.7807 9.14674 7.48513C10.0526 7.81632 10.8916 8.02736 11.5204 8.15711C11.6562 6.88566 12.0112 5.83713 12.556 5.00433C13.2749 3.90559 14.2775 3.25552 15.3542 2.96565C17.2112 2.46576 19.2717 3.03528 20.6071 4.08156ZM11.1963 10.2172C10.4826 10.0739 9.50179 9.83313 8.43138 9.4418C7.01761 8.92493 5.37592 8.11899 4.00076 6.87058C4.02537 7.10031 4.06031 7.32809 4.10608 7.54969C4.33655 8.66566 4.7648 9.29066 5.15335 9.48493C5.62857 9.72255 5.8488 10.2797 5.66446 10.7781C5.41487 11.4528 4.75844 11.5081 4.162 11.359C4.64171 12.0782 5.50394 12.7953 6.94208 13.0349C7.4381 13.1177 7.80426 13.5429 7.81236 14.0457C7.82048 14.5485 7.46823 14.9853 6.97512 15.0839L6.06839 15.2653C6.2071 15.3858 6.3573 15.504 6.5174 15.6148C7.24336 16.1174 7.97226 16.3342 8.60153 16.1769C9.07283 16.0591 9.563 16.2827 9.78296 16.7159C10.0029 17.149 9.89424 17.6767 9.52103 17.9877C8.85028 18.546 8.06694 18.994 7.28185 19.3658C6.91329 19.5404 6.5014 19.7127 6.05407 19.8643C6.39811 19.9378 6.75611 19.998 7.12582 20.0435C8.97017 20.2703 11.023 20.1173 12.9426 19.4575C14.8556 18.7999 16.6239 17.6443 17.9468 15.8659C19.2677 14.0898 20.1896 11.632 20.3132 8.29475C20.3229 8.032 20.4317 7.78264 20.6176 7.59673C21.0859 7.12834 21.473 6.59148 21.6634 5.95244C21.3302 6.05633 20.955 6.14625 20.5081 6.23168C20.1691 6.2965 19.82 6.18917 19.5759 5.94512C18.7796 5.14874 17.2046 4.62503 15.8957 4.97736C15.2798 5.14318 14.7199 5.50216 14.2994 6.1449C13.8701 6.80113 13.5417 7.82343 13.5417 9.37494C13.5417 9.66972 13.4168 9.95067 13.198 10.1482C12.6793 10.6164 11.8063 10.3397 11.1963 10.2172Z" clip-rule="evenodd"/></svg>