<svg width="25" height="25" viewBox="0 0 25 25" fill="none" xmlns="http://www.w3.org/2000/svg">
<g clip-path="url(#clip0_201_101)">
<path fill-rule="evenodd" clip-rule="evenodd" d="M9.89182 7.42887C9.56943 7.24464 9.17333 7.24597 8.85217 7.43234C8.53101 7.61872 8.33334 7.96197 8.33334 8.33329V16.6666C8.33334 17.038 8.53101 17.3812 8.85217 17.5676C9.17333 17.7539 9.56943 17.7553 9.89182 17.571L17.1834 13.4043C17.508 13.2189 17.7083 12.8738 17.7083 12.5C17.7083 12.1261 17.508 11.781 17.1834 11.5956L9.89182 7.42887ZM14.5671 12.5L10.4167 14.8716V10.1283L14.5671 12.5Z" fill="white"/>
<path fill-rule="evenodd" clip-rule="evenodd" d="M0 12.5C0 8.59403 0 6.64104 0.994703 5.27195C1.31595 4.82979 1.70479 4.44095 2.14695 4.1197C3.51604 3.125 5.46903 3.125 9.375 3.125H15.625C19.5309 3.125 21.484 3.125 22.853 4.1197C23.2952 4.44095 23.6841 4.82979 24.0053 5.27195C25 6.64104 25 8.59403 25 12.5C25 16.4059 25 18.359 24.0053 19.728C23.6841 20.1702 23.2952 20.5591 22.853 20.8803C21.484 21.875 19.5309 21.875 15.625 21.875H9.375C5.46903 21.875 3.51604 21.875 2.14695 20.8803C1.70479 20.5591 1.31595 20.1702 0.994703 19.728C0 18.359 0 16.4059 0 12.5ZM9.375 5.20833H15.625C17.6244 5.20833 18.9566 5.2112 19.9659 5.32055C20.9364 5.42569 21.3583 5.60883 21.6285 5.80516C21.8937 5.99791 22.1271 6.23121 22.3199 6.4965C22.5161 6.76672 22.6993 7.18868 22.8045 8.15905C22.9139 9.16841 22.9167 10.5006 22.9167 12.5C22.9167 14.4994 22.9139 15.8316 22.8045 16.8409C22.6993 17.8114 22.5161 18.2333 22.3199 18.5035C22.1271 18.7687 21.8937 19.0021 21.6285 19.1949C21.3583 19.3911 20.9364 19.5743 19.9659 19.6795C18.9566 19.7889 17.6244 19.7917 15.625 19.7917H9.375C7.3756 19.7917 6.04341 19.7889 5.03405 19.6795C4.06368 19.5743 3.64172 19.3911 3.3715 19.1949C3.10621 19.0021 2.87291 18.7687 2.68016 18.5035C2.48383 18.2333 2.30069 17.8114 2.19555 16.8409C2.0862 15.8316 2.08333 14.4994 2.08333 12.5C2.08333 10.5006 2.0862 9.16841 2.19555 8.15905C2.30069 7.18868 2.48383 6.76672 2.68016 6.4965C2.87291 6.23121 3.10621 5.99791 3.3715 5.80516C3.64172 5.60883 4.06368 5.42569 5.03405 5.32055C6.04341 5.2112 7.3756 5.20833 9.375 5.20833Z" fill="white"/>
</g>
<defs>
<clipPath id="clip0_201_101">
<rect width="25" height="25" fill="white"/>
</clipPath>
</defs>
</svg>
