<svg width="139" height="31" viewBox="0 0 139 31" fill="none" xmlns="http://www.w3.org/2000/svg">
<g clip-path="url(#clip0_329_628)">
<path d="M12.9772 30.6459C4.72238 30.6459 0.666748 24.1817 0.666748 15.9674C0.666748 7.3245 5.22485 0.931641 12.7977 0.931641C15.3459 0.931641 17.3558 1.61021 19.258 3.21736C19.7964 3.71736 20.227 3.5745 20.2988 2.89593L20.4783 1.25307H21.3397L21.8062 11.3602H20.9808C19.9758 5.61021 17.4994 2.50307 13.4078 2.50307C7.98842 2.50307 5.0454 8.00307 5.0454 15.5031C5.0454 23.1102 7.95253 28.9317 13.5155 28.9317C16.2073 28.9317 18.0736 27.4317 18.9709 26.0388V19.0031C18.9709 16.8245 18.1095 16.1816 12.2593 16.1816V15.3245H24.9646V16.1816C23.0265 16.1816 22.7394 16.7174 22.7394 19.0031V25.8602C20.6936 28.7531 17.2481 30.6459 12.9772 30.6459Z" fill="white"/>
<path d="M29.9447 7.00297C28.5809 7.00297 27.6118 6.0744 27.6118 4.8244C27.6118 3.53868 28.5809 2.61011 29.9447 2.61011C31.2727 2.61011 32.2417 3.53868 32.2417 4.8244C32.2417 6.0744 31.2727 7.00297 29.9447 7.00297ZM31.9546 10.9672V26.3958C31.9546 28.6815 32.3135 29.2173 34.5028 29.2173V30.0744H25.9609V29.2173C28.1502 29.2173 28.5091 28.6815 28.5091 26.3958V15.3958C28.5091 13.003 28.4732 12.503 26.3916 13.3601L26.0685 12.5387L31.3445 10.4315L31.9546 10.9672Z" fill="white"/>
<path d="M45.2515 22.0745H46.2565C46.2565 27.6459 45.1439 30.646 41.6266 30.646C38.8271 30.646 37.3556 28.9674 37.3556 23.9674V12.6102H34.8433V11.2888C37.4633 11.2174 39.1143 9.28879 39.4732 5.93164H40.7652V11.1459H45.0721V12.6102H40.837V23.0388C40.837 26.2174 41.16 28.3245 42.8469 28.3245C44.4619 28.3245 45.2515 26.3245 45.2515 22.0745Z" fill="white"/>
<path d="M57.7166 30.0745H46.8418V29.2174C50.1796 29.2174 50.6462 28.5745 50.6462 26.3959V5.18162C50.6462 3.00305 50.1796 2.36019 46.8418 2.36019V1.50305H58.0755C63.3155 1.50305 66.7969 3.78876 66.7969 8.57448C66.7969 12.5388 64.1769 14.8602 60.6955 15.2888V15.4674C65.1818 15.7531 68.1249 18.5388 68.1249 22.3959C68.1249 28.0388 63.4591 30.0745 57.7166 30.0745ZM54.63 4.07448V14.5745C55.5273 14.7174 56.4604 14.7174 57.3218 14.7174C60.2648 14.7174 62.8489 12.8602 62.8489 8.71734C62.8489 4.64591 60.2289 2.96733 57.3936 2.96733C56.7117 2.96733 55.958 3.00305 55.3478 3.14591C54.8453 3.25305 54.63 3.57448 54.63 4.07448ZM54.63 16.3245V27.5031C54.63 28.3602 55.5632 28.6102 57.25 28.6102C60.6237 28.6102 64.1051 27.3602 64.1051 22.4317C64.1051 17.5031 60.1213 16.1817 57.3577 16.1817C56.4245 16.1817 55.5273 16.1817 54.63 16.3245Z" fill="white"/>
<path d="M81.2458 30.646L80.528 30.0388L80.4562 27.0031L80.3486 26.9674C79.1283 28.8959 77.4055 30.646 74.8573 30.646C72.3809 30.646 70.9452 28.646 70.9452 25.5031V15.4316C70.9452 13.1102 70.8376 12.6816 68.6482 13.3602L68.397 12.5745L73.9242 10.7888L74.4266 11.2531V25.1459C74.4266 27.2531 75.0727 28.2531 76.4365 28.2531C77.8721 28.2531 79.3077 27.0388 80.4562 25.5031V15.4316C80.4562 13.1102 80.3845 12.6816 78.1592 13.3602L77.908 12.5745L83.471 10.7888L83.9376 11.2531V25.8245C83.9376 28.2174 84.0094 28.6817 86.2346 27.8602L86.5576 28.6817L81.2458 30.646Z" fill="white"/>
<path d="M96.7486 22.0745H97.7535C97.7535 27.6459 96.6409 30.646 93.1237 30.646C90.3242 30.646 88.8527 28.9674 88.8527 23.9674V12.6102H86.3403V11.2888C88.9604 11.2174 90.6113 9.28879 90.9702 5.93164H92.2623V11.1459H96.5691V12.6102H92.3341V23.0388C92.3341 26.2174 92.6571 28.3245 94.3439 28.3245C95.959 28.3245 96.7486 26.3245 96.7486 22.0745Z" fill="white"/>
<path d="M104.14 1.14587V26.3959C104.14 28.6816 104.463 29.2173 106.652 29.2173V30.0745H98.1101V29.2173C100.299 29.2173 100.658 28.6816 100.658 26.3959V5.75301C100.658 3.4673 100.658 3.00301 98.5049 4.07444L98.146 3.28873L103.602 0.645874L104.14 1.14587Z" fill="white"/>
<path d="M119.715 22.4316H120.576C119.822 28.1816 117.382 30.6459 114.008 30.6459C109.952 30.6459 107.404 26.8245 107.404 20.9316C107.404 15.2888 109.917 10.5031 114.188 10.5031C118.387 10.5031 120.361 14.4316 120.361 19.6459H110.886V19.7173C110.886 24.5745 112.393 28.003 115.372 28.003C116.987 28.003 118.853 26.753 119.715 22.4316ZM114.188 12.003C112.034 12.003 111.137 14.6102 110.922 18.1816H116.915C116.915 14.753 116.305 12.003 114.188 12.003Z" fill="white"/>
<path d="M132.395 10.5031C133.651 10.5031 134.333 11.2173 134.333 12.3959C134.333 13.7888 133.508 14.6816 132.575 14.6816C131.929 14.6816 131.641 14.4316 131.175 13.9316C130.708 13.4673 130.529 13.3245 130.098 13.3245C129.273 13.3245 128.304 14.503 127.55 16.6816V26.1816C127.55 28.6102 128.088 29.1816 131.354 29.1816V30.0745H121.664V29.2173C123.746 29.2173 124.104 28.6816 124.104 26.3959V15.3959C124.104 13.003 124.104 12.503 121.951 13.3959L121.592 12.5745L124.463 11.4316L126.904 10.4316L127.55 10.9673V14.3959H127.658C128.663 12.503 130.421 10.5031 132.395 10.5031Z" fill="white"/>
</g>
<defs>
<clipPath id="clip0_329_628">
<rect width="138" height="30" fill="white" transform="translate(0.666748 0.645874)"/>
</clipPath>
</defs>
</svg>
